<?xml version="1.0" encoding="UTF-8"?>
<svg version="1.1" viewBox="0 0 864 864" width="1280" height="1280" xmlns="http://www.w3.org/2000/svg">
<path transform="translate(410,77)" d="m0 0h130l2 6v143l61 1 5 2 12 18 12 20 12 19 14 23 12 19 13 21 12 20 12 19 8 11 4 4 4-2 8-6 6-2 9 1 7 6 2 3v18l-4 26-6 29-8 26-10 25-11 20-13 19-9 10-7 8-9 9-11 8 1 5 13 8 13 6 10 2h15l14-3 19-10 7-4 3 1v83l-3 12-7 14-8 10-8 7-16 8-7 2-9 1h-534l-13-2-12-5-11-8-7-7-8-13-5-13-2-8v-79l2-3 5 1 10 7 16 7 11 2h15l15-4 15-8 10-8 13-8 3-3 1-113 3-5 6-5 87-1v-60l5-8 6-5 7-3h22l4-4-1-3-8-7-4-4h-3l-4 4-6 1-8-2-8-6-4-8v-7l4-8-2-5-17-16-10-11-4-10 4-5-6-8-53-53-4-3v-2l-4-2v-2l-4-2v-2l-4-2v-2l-4-2-7-8-38-38-4-3h-5v255l8 4 6 5 6 11 4 10 2 8v32l8 10 7 14 1 4v7l-5 8-5 3-7 2h-7l-6-2-4 5-2 1 2 4 5 5 10 15 3 8v7l-4 2-17-6-5-1h-11l-17 5-7 2-2-2v-7l11-20 7-8 2-1 1-4h-2l-5-5-12-5-10-7-7-6-6-10-2-6v-8l5-10 7-7 8-10 3-4 4-16 6-14 8-8 6-4h2v-246l1-32 5-1 11 9 130 130 6 4v-2l3-2 6 1 8 5 10 8 25 25 8 7 34 34 8 7 15 15 4 2h26l6-4 1-151 5-6 5-3 61-1v-61h-121v-7l35-35-1-5-10-9-23-23-2-4z" fill="#071F66"/>
<path transform="translate(247,599)" d="m0 0h15l14 3 16 8 13 10 14 7 16 4h23l15-4 12-6 15-11 16-8 15-3h16l15 4 13 7 15 11 12 6 14 4h25l15-4 14-7 15-11 14-7 13-3h18l15 4 11 6 11 8 10 7 16 6 13 2h15l14-3 15-7h2v56l-2 18-5 12-9 11-12 9-14 5-7 1h-525l-17-2-10-4-9-7-8-8-6-10-4-10-2-15v-56l6 2 13 5 9 2h26l15-4 11-6 14-10 14-8 10-3z" fill="#BDF1FE"/>
<path transform="translate(476,236)" d="m0 0h56l68 1 4 4 9 15 16 26 11 17 12 20 12 19 11 18 12 19 13 21 7 12-4 4-25 11-26 10-33 11-28 8-36 8-23 4-17 2-15 1h-29l-1-1v-224l2-5z" fill="#44BDFE"/>
<path transform="translate(736,460)" d="m0 0h2l-2 10-9 29-11 26-11 20-10 14-8 10-11 12-15 13-6 3-11-5-12-3-7-1h-11l-16 4-16 8-11 7-9 6-13 6-15 3h-14l-12-3-13-6-14-10-11-7-14-5-12-2h-13l-12 2-11 4-13 7-15 11-12 6-12 3h-19l-12-3-16-8-13-10-15-8-16-4h-17l-9 1-1-3v-17l1-34 3-2 264-1 28-3 28-5 42-10 39-12 20-8 26-11 24-11 22-12z" fill="#FAFBFC"/>
<path transform="translate(740,403)" d="m0 0 4 2 1 2v12l-4 25-7 6-22 12-25 12-28 12-24 9-29 9-32 8-35 7-22 3-12 1h-265l-2-2v-23l1-18 3-2 245-1 23-1 25-3 23-4 36-8 35-10 30-10 25-10 24-11z" fill="#FAAE94"/>
<path transform="translate(476,236)" d="m0 0h56l68 1 4 4 9 15 16 26 11 17 12 20 12 19 11 18 12 19 13 21 7 12-4 4-25 11-26 10-33 11-28 8-36 8-23 4-17 2-15 1h-29l-1-1v-224l2-5zm30 26-6 4-5 8v158l3 5 6 4h10l35-5 37-8 23-6 43-13 8-5 6-8-1-8-9-16-14-22-28-46-12-19-10-16-8-7z" fill="#F9FBFC"/>
<path transform="translate(750,622)" d="m0 0h2v56l-2 18-5 12-9 11-12 9-14 5-7 1h-525l-17-2-10-4-9-7v-3l4 1 2-5 10-1h306l185-1 17-2 15-5 14-8 12-11 6-7 12-17 13-22 3-4h2v-2l6-4z" fill="#99D9FC"/>
<path transform="translate(740,403)" d="m0 0 3 2h-2l-2 5-13 10-12 8-16 10-15 9-18 8-22 8-39 11-43 9-27 4-21 1-237 1-23 1-2 1-1 30-1 2h-9l-2-2v-23l1-18 3-2 245-1 23-1 25-3 23-4 36-8 35-10 30-10 25-10 24-11z" fill="#F7F9FA"/>
<path transform="translate(506,262)" d="m0 0h78l8 7 15 24 13 21 14 23 13 21 12 19 7 14-1 7-7 8-12 5-51 15-40 9-33 5-8 1h-10l-6-4-3-5v-158l5-8zm2 11-1 1-1 50v106l3 1 38-6 34-7 28-7 29-9 16-6 1-3-6-12-12-19-10-16-14-23-12-19-13-21-7-10z" fill="#061D64"/>
<path transform="translate(247,650)" d="m0 0h14l12 2 11 4 11 6 18 13 13 6 10 2h20l12-3 14-7 15-11 16-8 11-3 8-1h10l14 2 13 5 15 9 12 9 11 5 14 3h18l12-3 14-7 15-11 16-8 11-3 7-1h14l12 2 13 5 12 7 5 4 2 3v5l-1 1h-8l-10-7-11-5-16-3h-12l-14 3-12 5-13 9-11 7-11 5-12 3h-25l-14-4-12-6-18-13-12-6-15-3h-15l-14 3-9 4-10 6-14 10-15 7-10 2h-24l-12-3-12-5-12-8-11-8-11-5-9-2h-25l-14 4-13 7-4 3h-6l-2-2 1-5 8-7 14-8 14-4z" fill="#061D64"/>
<path transform="translate(340,425)" d="m0 0 118 1 1 1v39l-2 1h-120l-2-1-1-3v-33l1-4z" fill="#F8FBFC"/>
<path transform="translate(736,460)" d="m0 0h2l-2 10-9 29-11 26-11 20-10 14-8 10-11 12-15 13-6 3-11-5-12-3v-1h7l-6-4v-2l-5-2v-3l12-6 12-9 5-4 7-8 11-13 10-15 8-14 13-23 5-9-1-2 16-8z" fill="#DCDFE2"/>
<path transform="translate(247,599)" d="m0 0h15l14 3 16 8 1 5-4 1-17-4h-18l-13 4-13 7-10 7-14 8-12 4-7 1h-27l-23-3-1 26v14l1 16 2 8v5l-5 1-7-14-2-8-1-10v-56l6 2 13 5 9 2h26l15-4 11-6 14-10 14-8 10-3z" fill="#F5FAFC"/>
<path transform="translate(430,86)" d="m0 0 101 1v28l-1 1h-20l-53-1-8-7-12-12-6-5-2-4z" fill="#F8F29E"/>
<path transform="translate(457,126)" d="m0 0 73 1v28h-102l6-7 8-7z" fill="#B0EF7B"/>
<path transform="translate(606,246)" d="m0 0 3 3 10 17 12 19 25 40 16 26 25 40 10 17-4 4-9 4-3-1-7-12-10-19-9-16-6-10-8-14-10-19-8-17v-8l-4-8-5-7-4-10-3-6-5-4-3-11-3-5z" fill="#DFE5E5"/>
<path transform="translate(431,599)" d="m0 0h16l15 4 13 7 2 2-1 5-9-2-6-2-7-1h-15l-14 3-14 7-11 8-13 8-13 4-8 1h-20l-15-3-9-5-7-6 1-2 9 2 10 2h23l15-4 12-6 15-11 16-8z" fill="#F8FBFC"/>
<path transform="translate(138,472)" d="m0 0 5 1 7 3h17l7-3h5l1 7-3 23-7 21-8 17-1 3h-4l-8-16-9-27-2-10-1-17z" fill="#44BDFE"/>
<path transform="translate(612,599)" d="m0 0h18l15 4 11 6 2 1v2l-4 1h-9l-13-2h-10l-13 3-13 7-10 8-13 8-15 5-17 2-12-1-13-3-13-7-3-3v-3l16 4h25l15-4 14-7 15-11 14-7z" fill="#F7FAFC"/>
<path transform="translate(310,298)" d="m0 0 6 2 12 11 16 16 8 7 15 14 32 32 7 5 2 4-1 1h-19l-5-3-15-15-7-8-1-11-4-6-7-6-16-4-13-14-8-7-7-8-1-3 3-5z" fill="#F2F09B"/>
<path transform="translate(448,401)" d="m0 0h8l3 2-1 11h-122v-7l3-4 6-1z" fill="#FAAE94"/>
<path transform="translate(705,491)" d="m0 0 3 1 3 11-5 10-1 5-5 10v2h-2l-2 9-4 5-6 11h-2v2l-5 3-5 5-8 6h-2v2h-11l-1-3 6-8h2l1-3 5-5 4-11 10-13 11-18 9-17 2-3z" fill="#DCDBD2"/>
<path transform="translate(721,499)" d="m0 0h4l-1 8-11 24-10 17-8 11-8 10-11 12-15 13-6 3-11-5-12-3v-1h7l-6-4v-2l-5-2v-3l10-5 2 1-4 4 5 5 6 2h7l10-4 7-5 7-8 9-9 4-6 4-5 1-3h2l2-6 6-11 9-18 3-5z" fill="#E1E5E4"/>
<path transform="translate(430,86)" d="m0 0 101 1v9l-2 1-20-1h-72l-6-5-2-4z" fill="#FCFCFC"/>
<path transform="translate(476,236)" d="m0 0h56l68 1 1 2-47 1h-60v-1h-10l-11 1-1 225h27l18-1-2 2-15 1h-29l-1-1v-224l2-5z" fill="#B0D8EC"/>
<path transform="translate(658,611)" d="m0 0 5 3 12 9 15 6 7 2 9 1h27v3l-6 5-10 3h-11l-17-2-8-4-13-8-5-4-10-7-11-4-4-2h16z" fill="#C4F6FD"/>
<path transform="translate(155,436)" d="m0 0h7l7 4 6 9 2 9-3 3-10 4-12 1-9-4-3-2 1-7 5-8 5-6z" fill="#F1F8FB"/>
<path transform="translate(363,351)" d="m0 0 8 1 28 28 7 5 2 4-1 1h-19l-5-3-15-15-7-8v-11h2z" fill="#F5EE9D"/>
<path transform="translate(654,457)" d="m0 0 3 1-24 8-34 9-38 8-27 4-21 1-237 1-23 1-3 1v-2l2-1 9-1 119-2h140l35-4 29-5 30-7 37-11z" fill="#DCDBD2"/>
<path transform="translate(138,472)" d="m0 0 5 1 6 3 1 24 3 18 6 18 1 2v6h-3l-8-16-9-27-2-10-1-17z" fill="#EAF5F9"/>
<path transform="translate(268,644)" d="m0 0 9 1 5 3 9 3 17 10 11 6 14 8-1 4h-6l-6-1v-2h-7l-18-13-15-8-10-3v-2l-5-1-1-4z" fill="#C7F9FF"/>
<path transform="translate(655,344)" d="m0 0 5 2 5 5 4 8 7 11 10 18 4 9v2l2 1 1 5-1 2-5 1-8-14-8-16-11-18-4-11z" fill="#DCDFE2"/>
<path transform="translate(736,460)" d="m0 0h2l-2 10-8 26h-2l-3-5v-7l-1-4-12 2-2 1 2-6v-3l16-8z" fill="#DBE3E4"/>
<path transform="translate(125,488)" d="m0 0 2 1 4 19 5 15v5l-4-1-10-9-7-10v-8l7-9z" fill="#44BDFE"/>
<path transform="translate(293,612)" d="m0 0 7 4 10 7 7 3-1 3 9 7 9 4 12 2 19 1v1h-28l-16-5-14-7-11-7-10-7-9-4 4-1 9 2h3z" fill="#C3F7FE"/>
<path transform="translate(430,86)" d="m0 0 101 1v9l-2 1-20-1h-72l-6-5-2-4zm10 2 4 1 2 4 2 1 16 1 50-1 3-1 11-1 2-1v-3z" fill="#DCDED9"/>
<path transform="translate(388,659)" d="m0 0 3 1-2 9-14 9-10 4h-20l-2-3 7-2 16-5 7-5 10-4z" fill="#C2F6FE"/>
<path transform="translate(249,663)" d="m0 0h12l5 1-1 5-17 1-17 4-10 4-5 1-2 3-4 1-3-3 6-4 5-5 13-4 12-3z" fill="#C4F7FE"/>
<path transform="translate(477,613)" d="m0 0 5 2 8 6 10 5 2 5 10 6 6 3 18 3v1h-10l-15-3-13-5-13-8-8-6-5-2-7-5 2-1 9 2z" fill="#C4F8FE"/>
<path transform="translate(494,275)" d="m0 0h1v152l-2-1-1-18 1-132z" fill="#ACE3FA"/>
<path transform="translate(242,478)" d="m0 0h229v1l-226 1-5 1 1 10v31l8-1v2h-9l-2-2v-23l1-18z" fill="#9CDAFC"/>
<path transform="translate(567,662)" d="m0 0h5l1 6-10 7-12 6-3 1h-10l-3-3 4-3 9-4z" fill="#C0F5FE"/>
<path transform="translate(158,557)" d="m0 0 6 1 7 7 3 5-1 3-10-2h-8l-11 2 1-4 6-8z" fill="#44BDFE"/>
<path transform="translate(334,430)" d="m0 0h1l1 34 111 1 6 1v1h-116l-2-1-1-3z" fill="#9CD3F1"/>
<path transform="translate(621,644)" d="m0 0h17l9 3 10 4 6 4 2 3-9-1-6-2-14-3-8-1-8-5z" fill="#C2F6FE"/>
<path transform="translate(173,447)" d="m0 0 2 2 2 9-3 3-10 4-12 1-6-2v-1l10-2 6-9 8-4z" fill="#47BEFD"/>
<path transform="translate(187,510)" d="m0 0 4 4 3 7 1 8-4 4h-12l-1-2 6-14z" fill="#44BDFE"/>
<path transform="translate(512,237)" d="m0 0h88l1 2-47 1h-60v-1l18-1z" fill="#C0E0EE"/>
<path transform="translate(338,350)" d="m0 0h6l5 5 1 7-3 3-2 1h-8l-4-5v-6z" fill="#ECEC98"/>
<path transform="translate(486,662)" d="m0 0 7 1 16 8 7 4-1 4h-8l-8-4-6-4-6-3v-3l-2-1z" fill="#C7F9FF"/>
<path transform="translate(685,568)" d="m0 0v3l-7 8-11 10-6 5-6 3-11-5v-2h11l14-10 8-7 2-2 4 1z" fill="#EEF5F8"/>
<path transform="translate(611,663)" d="m0 0h20l1 3-7 1-5 1-17 1-8 4-5 3h-6l4-6 13-5z" fill="#C6F8FF"/>
<path transform="translate(541,259)" d="m0 0h24l18 1v2h-76l1-2z" fill="#9FD3ED"/>
<path transform="translate(240,535)" d="m0 0h1v51l26 1 4 2h-23l-9 1-1-3v-17l1-34z" fill="#9ED4EF"/>
<path transform="translate(522,87)" d="m0 0h9v9l-2 1-20-1h-47l2-2 50-1 3-1 11-1 2-3h-8z" fill="#DBDBD2"/>
<path transform="translate(635,666)" d="m0 0h8l10 3 4 6-3 3-7-1-9-5-3-4z" fill="#C4F7FE"/>
<path transform="translate(242,662)" d="m0 0h25l12 3 13 7 10 8 2 2-4-1-10-7-9-5-12-4-8-1h-12l-16 3-7 3-4-1 12-5z" fill="#75CDFC"/>
<path transform="translate(698,633)" d="m0 0h25l1 2h-2v3l-7 3h-9l-6-3-3-4z" fill="#FDFDFD"/>
<path transform="translate(342,338)" d="m0 0h7l5 2 2-2 8 7 6 6-1 2-5-1-4 1-4-6-7-6-7-2z" fill="#B8E782"/>
<path transform="translate(271,666)" d="m0 0 8 1 6 3 3 6v3l-5-1-15-7v-2z" fill="#C7F9FF"/>
<path transform="translate(606,246)" d="m0 0 3 3 10 17 9 14-1 2-6-5-4-8-5-4-3-11-3-5z" fill="#CEDFE6"/>
<path transform="translate(242,478)" d="m0 0h14v1l-11 1-5 1 1 10v31l8-1v2h-9l-2-2v-23l1-18z" fill="#AEDBED"/>
<path transform="translate(512,237)" d="m0 0h23v1h23l-4 2h-60v-1l18-1z" fill="#E0E2E1"/>
<path transform="translate(270,651)" d="m0 0h10l16 9 1 3 5 2 13 10h-3l-20-14-15-7-7-2z" fill="#87D5FD"/>
<path transform="translate(721,632)" d="m0 0h12v3l-6 5-10 3-2-2 5-3h2l1-4z" fill="#C3F7FE"/>
<path transform="translate(338,427)" d="m0 0h28v1l-23 1-5 1v18l-1 7-2 1v-28z" fill="#DEE0DD"/>
<path transform="translate(427,663)" d="m0 0h12l3 1-2 4h-7l-7-1-8 2-2-2 6-1v-2z" fill="#C6F8FF"/>
<path transform="translate(151,513)" d="m0 0h1l6 21 2 4v6h-3l-4-7v-9l-2-8z" fill="#BBEDFC"/>
<path transform="translate(137,629)" d="m0 0 7 1 6 1h26l9-1-3 2-8 2h-25l-12-4z" fill="#BAE0F1"/>
<path transform="translate(459,667)" d="m0 0 4 1 1 3 5 1v2h2v4l-5-1-10-6 1-3z" fill="#C8FAFF"/>
<path transform="translate(740,403)" d="m0 0 3 2h-2l-2 5-13 10-6 4-2-1 7-5 3-4h2l2-4 7-4z" fill="#D9DBD4"/>
<path transform="translate(136,701)" d="m0 0 5 5 2 6-2 3h-5l-3-5 3-1z" fill="#C6F8FE"/>
<path transform="translate(484,666)" d="m0 0 5 2 10 6 8 4 4 1 1 3-10-3-12-7-6-5z" fill="#98DEFD"/>
<path transform="translate(350,681)" d="m0 0h9l2 2-5 1h-20v-1z" fill="#91DCFD"/>
<path transform="translate(281,668)" d="m0 0 6 1 11 8 6 4-3 1-11-8-9-5z" fill="#78CEFC"/>
<path transform="translate(155,528)" d="m0 0 2 3 3 7v6h-3l-2-4 1-1z" fill="#A7E2FC"/>
<path transform="translate(619,268)" d="m0 0 4 4 5 8-1 2-6-5-3-7z" fill="#DADFE2"/>
<path transform="translate(687,564)" d="m0 0 3 1-7 7-4 1 1-4 4-4z" fill="#D9DCD5"/>
<path transform="translate(717,415)" d="m0 0h2v2l-7 4-9 4-3-1z" fill="#D1DEE3"/>
<path transform="translate(701,401)" d="m0 0h2l1 2v7l-4-1-1-4z" fill="#F9FAFB"/>
<path transform="translate(541,472)" d="m0 0h5l-1 2-9 2h-6l-1-2z" fill="#B4DAED"/>
<path transform="translate(285,654)" d="m0 0 11 6 1 2-5-1-6-3z" fill="#A4E5FE"/>
<path transform="translate(155,436)" d="m0 0h7l5 3-2 1-8-1-4-1z" fill="#B3DCEF"/>
<path transform="translate(498,676)" d="m0 0 7 1 6 2 1 3-10-3z" fill="#8DDAFD"/>
<path transform="translate(665,658)" d="m0 0 5 1 2 4-4 1-4-4z" fill="#C8FAFF"/>
<path transform="translate(704,542)" d="m0 0 1 3-8 12-1-3 7-11z" fill="#CAD9DC"/>
</svg>
