<?xml version="1.0" encoding="UTF-8" standalone="no"?>
<svg
   xmlns:dc="http://purl.org/dc/elements/1.1/"
   xmlns:cc="http://creativecommons.org/ns#"
   xmlns:rdf="http://www.w3.org/1999/02/22-rdf-syntax-ns#"
   xmlns:svg="http://www.w3.org/2000/svg"
   xmlns="http://www.w3.org/2000/svg"
   viewBox="0 0 317.33334 400"
   height="400"
   width="317.33334"
   xml:space="preserve"
   id="svg2"
   version="1.1"><metadata
     id="metadata8"><rdf:RDF><cc:Work
         rdf:about=""><dc:format>image/svg+xml</dc:format><dc:type
           rdf:resource="http://purl.org/dc/dcmitype/StillImage" /></cc:Work></rdf:RDF></metadata><defs
     id="defs6" /><g
     transform="matrix(1.3333333,0,0,-1.3333333,0,400)"
     id="g10"><g
       transform="scale(0.1)"
       id="g12"><path
         id="path14"
         style="fill:#3872c1;fill-opacity:1;fill-rule:nonzero;stroke:none"
         d="M 1190.02,724.773 C 532.789,724.773 0,562.527 0,362.395 0,162.246 532.789,0 1190.02,0 c 657.23,0 1190.02,162.246 1190.02,362.395 0,200.144 -532.79,362.378 -1190.02,362.378 z m 595.21,-466.082 c -158.35,-48.222 -369.73,-74.796 -595.21,-74.796 -225.473,0 -436.852,26.566 -595.211,74.796 -162.454,49.473 -220.102,107.532 -220.102,142.215 0,34.692 57.648,92.746 220.102,142.219 158.359,48.223 369.738,74.773 595.211,74.773 h 0.09 c 225.43,0 436.8,-26.55 595.14,-74.773 162.44,-49.473 220.07,-107.527 220.07,-142.219 0,-34.683 -57.64,-92.742 -220.09,-142.215" /><path
         id="path16"
         style="fill:#c42224;fill-opacity:1;fill-rule:nonzero;stroke:none"
         d="m 1193.73,3000 c -512.195,0 -927.437,-415.21 -927.437,-927.43 0,-88.02 12.535,-173.06 35.457,-253.74 14.094,-49.67 29.531,-99.01 53.875,-143.6 190.191,-348.19 838.105,-1347.601 838.105,-1347.601 0,0 647.94,999.431 838.13,1347.621 24.33,44.59 39.75,93.92 53.87,143.58 22.9,80.68 35.44,165.72 35.44,253.74 0,512.22 -415.22,927.43 -927.44,927.43 z m 0,-1335.79 c -129.34,0 -244.753,60.5 -319.632,154.62 -55.481,69.74 -88.746,157.91 -88.746,253.74 0,225.19 183.191,408.37 408.378,408.37 225.19,0 408.36,-183.18 408.36,-408.37 0,-95.83 -33.26,-184 -88.72,-253.74 -74.89,-94.12 -190.3,-154.62 -319.64,-154.62" /></g></g></svg>