<?xml version="1.0" encoding="UTF-8"?>
<svg version="1.1" viewBox="0 0 1440 1132" width="1280" height="1280" xmlns="http://www.w3.org/2000/svg">
<path transform="translate(1135,13)" d="m0 0 3 1-5 8-4 10h-2v2l-5 2v3l5 2v17l-6 2 1 3 3 3-1 5-3 2v2l6 2v8l1 6-4 4 4 2 2 10 2 4 24-24 12-9 15-10 23-12 17-8 12-5 10-5h3l-1 5-5 8-10 1v3l6 2 1 4-5 10-6 3-3 4 2 4-4 2h-6l5 5-2 4-6 9-6 4-1 2h-2l3 5v2l26-3h44l17 2 24 5 24 7 6 3-2 2-13 1-13 4-9-7-7-1 3 6 3 5-4 4-10 4-4 2-2-2-4 1-4 5-12 6h-2l-5-6-6-1-1 3 3 5v3l-5-1-1-1-2 5-11 5-5 2 3 3 18 11 14 12 12 13 11 16 6 10 8 20 4 13 3 21-2 1-11-7-17-11-20-12-1-1v-14l-1-3h-2l-6 11-3-1-1-11-5 5-4 1-18-9-1-12h-6l-1 7-6-1-12-5-2-4 2-13-3-3-3-1-1 11h-2l-3-11-2 3-3 12-5 4-9 4h-2v2l4 2 13 13 9 11 10 13 9 13 12 19 15 27 13 29 13 34 12 44 11 53 4 29 4 40 1 22 2 16 2 61 2 3 5-1 13-7 8-2 11-6 4-3 4-2 5 1 5 10 6 9 8 17 6 12 2 11 3 8 4 12 3 11 2 30 2 5v10l-2 3-1 78-1 13-2 5-2 18-6 19-3 14-7 21-13 28-12 22-7 11-7 10-8 10-48 48-8 6-22 12-8 5-6 3-9 3-11 5-8 2-5 2-9 1-3 2-9 1h-34l-3-3h-12l-12-1-4-3h-7l-7-2-9-4-1-2h-8l-14-6-11-6-8-2-26-13-9-2-7-6-40-20-4-4-23-11-13-6-12-4-14-4h-18l-7 3-9 3-12 5-18 6-16 8-13 6-7 2-16 8-13 6-7 2-5 2-9 3-6 1h-56l-3-3h-7l-7-2-2-2h-6l-2 1-16-6-11-6-19-11-11-6-8-5-24-10-6-3-13-2h-10l-12 2-15 4-16 6-26 11-16 8-17 9-17 10-18 11-17 10-33 16-8 2-5 2-13 1-3 2-18 2-25 1-3 2h-29l-3-3h-16l-10-2-5-2-7-2-11-6-9-2-5-5-7-3-10-6-3-3-8-4-11-8-10-9-15-15-9-11-11-14-8-11-8-13-9-17-8-19-12-36-7-28-6-30-4-35-1-16v-19l4-1 17 2 27-1 4-5 3-13v-25l-7-8-2-4 1-5 10-4 9-2 8-10 6-9 12-12 7-6-1-11 1-2 14-7 9-16 3-7 4-16 3-14 2-5 3-13v-7l2-6 1-10 7-1 10-19 2-3 4 1 2 12 4 13 22 1 4 4 5 10 4-1 8-4 3-2h8l13 6-2 4-1 5 4 4-1 7-2 3v3l4 1 11-3h5l-4 5-4 4 1 1 9 2 2 1 13-6 5-1-2-5-10-9-7-6v-2l20 4 9 4h2v-7l-2-7v-4l5 1 1 3 3 1 12 16 4 2 3-9 1-11 3 2 2 10v8l-2 8-1 5 19 6 8 4-1 3h-12v3l11 12 5 10 4 13v6l-4-2-5-7v-2l-6-2-4-3-4 23-2 5 1 7 1 8-4-2-4-6-4-1-1 6v7l-3 8-1-4-2-9-2-5h-2l-5 13-5 8h-2l2-11v-23h-8l-5 5-7 8-8 15-2 5 1 5 4 3v6l2 1h12l4 2v7l-3 4 1 4 2 2v4l-9 5-5 18 2 9 104 1-2-4-8-3 2-5 4-5 11-16 9-15 9-16 4-6 2-6 2-1 1 2 3 23 2 4 2 19 4 4 3-1 4-21 2-7 1-10 1-2h2l9 37 6 20 2 4-2 4 3 2 27 1 45 1 189 2 54 1h9l7 1 12-1 4-3 10-4 7-2 1-1 18-2 2-2 4-1 14-1 1-16-6-17-9-14-5 1-2 8v14l-2-1-3-7-2-3v-3h-2l-2 13-3-4-1-12-5 5-3 1 1-6 7-10-2-6 5-1 6 1v-13l5 5v2h2l2-5 4-4h1l2 6h10v2l-5 3 1 4 6 5 1 5-5-1-3-3h-5l1 4 7 8 8 14 3 7 3 10 3 4h10l3-3 17-1 2-3 10-1 2-2 5-1 17-1 1-5-2-8-5-12-6-10-6-7-5-1-3 2-2 8v22l-3-3-6-12-5-2-1 2-1 10h-3l-1-5v-12l-3-1h-3l-2 4-3 3-3-1 5-13 5-6v-6l-2-4 16-5 1-4-1-5v-3h-4l-2 5-3-1v-7l5-17 5-8 8-11 7-7 6-4 1-3-2-3-7-1h-11l2-4 10-5 14-5 7-1h11l-3-7-1-15 2-11 5-12 2-3h2l-1 11 2 12 3 9 3 2 11-15 11-11 8-6 2-2h3l-2 11-5 15v2l10-3 11-3 16-2h10l3 2-10 6-13 10-11 7v2l7 4 11 6 8 7 7 10 5 11v2l-6-2-16-7-5-4-2 2-6-1-3-2-9-2-5-3v6l-1 4 13 11 12 13 14 19 11 18 8 17 4 6h2l2-3 10-1 3-3h13l1-3 2-1h13l1-3 8-3 3-2 12-1 2-2 10-2 3-3 9-1 3-3 10-2 24-12 5-6 2-19 2-5 2-35 2-5v-59l-1-13-3-65-1-3-3-34-2-9-2-15-2-10-2-17-5-23-2-6-2-9-7-25-7-16-3-9-24-48-7-11-5-6-3-1-1 5-5 4-3 4-9 1h-9l-7-3-3-2h-9l-5 5 6 4v10l-6 26-2 3h-2l-2 4-4 6-2 4 5 2-2 10-10 30-3 3h-7v3l5 2 1 5-6 20-3 1-8 1 2 4 5 5-1 14-2 20v12l2 10-1 4-8-16-11-27-12-35-6-27-2-17-1-36-4-6-4 4 1 9 1 5-23 23-4-2-6-6v-2h-3v10l1 14-10 19-4 10-3 13-1 17h-2l-4-27-2-30 2-24 2-11 6-25 7-18 10-23 3-4 1-7-6-1h-2l-2 18-6 4-13 4-12 5-8 1-5-5v8h-4l-4-8-2-6-3 4-3 11-1 7-4 3-8 4-21 15-1-3 9-26 7-14 9-15 6-7 9-11 14-14 8-7 8-6 9-7 10-7 19-10 21-7 8-2-4-5-9-4-2-4-11-3-1-9-6 3-7 1-14-5-8-3 1-3 16-5 13-4 20-3h41l16 3 11 4 6 4 4 1v-34l3-23 4-15 5-12 10-18 10-14 6-7h2l2-4zm-13 102-2 1 1 4 8-1 1-3zm-85 53-1 1v7l3 1 2-4 5-3-1-2zm-736 480-13 3-1 1v15l-3-4-6-10h-2v33l5 6 4-4 7-11 7-7 11-8 7-6 9-5-1-3zm23 12v3l5 5h3l-1-4-4-4zm-5 3-4 4 3 6 2 2 4-1 1-5-2-5zm698 9-4 1-5 1-3 3v13l-4 3v2h2v15l-2 4 1 8-1 2v7l4 17-7-11-13-22-4-8-4-2-4 5-7 6 2 4 6 4 4 4 2 5-5-1-5-3h-6l-1 4 4 7 10 14 10 19 4 2 2-3 10-1 1-3 15-1 2-3 10-1 2-2 10-2 2-2 10-2 4-2 4 2 4-4-1-7-11-28-8-15-9-13-10-13-4-3zm-711 4-5 5-2 9-6 5-5 10v29l4-2 10-15 14-15 8-6v-3l-2-1h-11l-11 4 4-5 11-8 1-5-4-2zm643 16-9 4 1 4 2 2 1 9h3l4-6 5-6 1-6-1-1z" fill="#F8DDB1"/>
<path transform="translate(195,561)" d="m0 0 4 1 2 12 4 13 22 1 4 4 5 10 4-1 8-4 3-2h8l13 6-2 4-1 5 4 4-1 7-2 3v3l4 1 11-3h5l-4 5-4 4 1 1 9 2 2 1 13-6 5-1-2-5-10-9-7-6v-2l20 4 9 4h2v-7l-2-7v-4l5 1 1 3 3 1 12 16 4 2 3-9 1-11 3 2 2 10v8l-2 8-1 5 19 6 8 4-1 3h-12v3l11 12 5 10 4 13v6l-4-2-5-7v-2l-6-2-4-3-4 23-2 5 1 7 1 8-4-2-4-6-4-1-1 6v7l-3 8-1-4-2-9-2-5h-2l-5 13-5 8h-2l2-11v-23h-8l-5 5-7 8-8 15-2 5 1 5 4 3v6l2 1h12l4 2v7l-3 4 1 4 2 2v4l-9 5-5 18 2 9 104 1-2-4-8-3 2-5 4-5 11-16 9-15 9-16 4-6 2-6 2-1 1 2 3 23 2 4 2 19 4 4 3-1 4-21 2-7 1-10 1-2h2l9 37 6 20 2 4-2 4 3 2 27 1 45 1 189 2 54 1h9l1 2-7 4-2 4 21 7 12 2 16 4 46 8 30 6 23 6 24 10 20 12 8 6 1 7-5 8-9 10-10 7-10 5-14 4-12 2-45 4-18 4-16 6-35 17-19 10-21 11-24 14-23 14-15 10-13 9-14 10-12 9-35 28-6-2-13-5-9-5-19-11-11-6-8-5-24-10-6-3-13-2h-10l-12 2-15 4-16 6-26 11-16 8-17 9-17 10-18 11-17 10-33 16-8 2-5 2-13 1-3 2-18 2-25 1-3 2h-29l-3-3h-16l-10-2-5-2-7-2-11-6-9-2-5-5-7-3-10-6-3-3-8-4-11-8-10-9-15-15-9-11-11-14-8-11-8-13-9-17-8-19-12-36-7-28-6-30-4-35-1-16v-19l4-1 17 2 27-1 4-5 3-13v-25l-7-8-2-4 1-5 10-4 9-2 8-10 6-9 12-12 7-6-1-11 1-2 14-7 9-16 3-7 4-16 3-14 2-5 3-13v-7l2-6 1-10 7-1 10-19zm106 87-13 3-1 1v15l-3-4-6-10h-2v33l5 6 4-4 7-11 7-7 11-8 7-6 9-5-1-3zm23 12v3l5 5h3l-1-4-4-4zm-5 3-4 4 3 6 2 2 4-1 1-5-2-5zm-13 13-5 5-2 9-6 5-5 10v29l4-2 10-15 14-15 8-6v-3l-2-1h-11l-11 4 4-5 11-8 1-5-4-2z" fill="#63B8EA"/>
<path transform="translate(195,561)" d="m0 0 4 1 2 12 4 13 22 1 4 4 5 10 4-1 8-4 3-2h8l13 6-2 4-1 5 4 4-1 7-2 3v3l4 1 11-3h5l-4 5-4 4 1 1 9 2 2 1 13-6 5-1-2-5-10-9-7-6v-2l20 4 9 4h2v-7l-2-7v-4l5 1 1 3 3 1 12 16 4 2 3-9 1-11 3 2 2 10v8l-2 8-1 5 19 6 8 4-1 3h-12v3l11 12 5 10 4 13v6l-4-2-5-7v-2l-6-2-4-3-4 23-2 5 1 7 1 8-4-2-4-6-4-1-1 6v7l-3 8-1-4-2-9-2-5h-2l-5 13-5 8h-2l2-11v-23h-8l-5 5-7 8-8 15-2 5 1 5 4 3v6l2 1h12l4 2v7l-3 4 1 4 2 2v4l-9 5-5 18 2 9h5l-3 1 3 4v2l5 1 17 6 12 6 5 4 7 10 12 7 6 3 2 4-3 1-15-5-5-3-31-7-17-3-15-3-1 8-1 1-10-1-25-6-7-1h-19l-4 1-8 10-9 10-12 16-9 15-8 16-4 9h18l66-4 229-19 56-4v-2h-2v-2l-5-1-5-3h-11l-7 2-9 1-8 2-2-1v-5l8-10 10-7 9-2 11 1 17 3 10 4h7l17-4h5l-1 5-7 4-1 4 7 6h24l18-1 45-1 61-2 13-1 3 2-9 4-25 8-42 12-44 11-41 9-56 11-66 11-63 10-52 8-42 6-16 2-19 1-13 3-8 5-3 5-1 11 3 17 6 18 6 14 9 14 9 10 5 4 17 9 21 7 33 9 9 3v2l-21 10-8 2-5 2-13 1-3 2-18 2-25 1-3 2h-29l-3-3h-16l-10-2-5-2-7-2-11-6-9-2-5-5-7-3-10-6-3-3-8-4-11-8-10-9-15-15-9-11-11-14-8-11-8-13-9-17-8-19-12-36-7-28-6-30-4-35-1-16v-19l4-1 17 2 27-1 4-5 3-13v-25l-7-8-2-4 1-5 10-4 9-2 8-10 6-9 12-12 7-6-1-11 1-2 14-7 9-16 3-7 4-16 3-14 2-5 3-13v-7l2-6 1-10 7-1 10-19zm106 87-13 3-1 1v15l-3-4-6-10h-2v33l5 6 4-4 7-11 7-7 11-8 7-6 9-5-1-3zm23 12v3l5 5h3l-1-4-4-4zm-5 3-4 4 3 6 2 2 4-1 1-5-2-5zm-13 13-5 5-2 9-6 5-5 10v29l4-2 10-15 14-15 8-6v-3l-2-1h-11l-11 4 4-5 11-8 1-5-4-2z" fill="#A4CCF0"/>
<path transform="translate(1135,13)" d="m0 0 3 1-5 8-4 10h-2v2l-5 2v3l5 2v17l-6 2 1 3 3 3-1 5-3 2v2l6 2v8l1 6-4 4 4 2 2 10 2 4 24-24 12-9 15-10 23-12 17-8 12-5 10-5h3l-1 5-5 8-10 1v3l6 2 1 4-5 10-6 3-3 4 2 4-4 2h-6l5 5-2 4-6 9-6 4-1 2h-2l3 5v2l26-3h44l17 2 24 5 24 7 6 3-2 2-13 1-13 4-9-7-7-1 3 6 3 5-4 4-10 4-4 2-2-2-4 1-4 5-12 6h-2l-5-6-6-1-1 3 3 5v3l-5-1-1-1-2 5-11 5-5 2 3 3 18 11 14 12 12 13 11 16 6 10 8 20 4 13 3 21-2 1-11-7-17-11-20-12-1-1v-14l-1-3h-2l-6 11-3-1-1-11-5 5-4 1-18-9-1-12h-6l-1 7-6-1-12-5-2-4 2-13-3-3-3-1-1 11h-2l-3-11-2 3-2 9-7-2-7-5-5-3-5-4v-3l-6 1-10-7-12-6-9-1-3 9-1 5v34l-2 4-7 2 2 6 4 8v1l-8 1-5 5 6 4v10l-6 26-2 3h-2l-2 4-4 6-2 4 5 2-2 10-10 30-3 3h-7v3l5 2 1 5-6 20-3 1-8 1 2 4 5 5-1 14-2 20v12l2 10-1 4-8-16-11-27-12-35-6-27-2-17-1-36-4-6-4 4 1 9 1 5-23 23-4-2-6-6v-2h-3v10l1 14-10 19-4 10-3 13-1 17h-2l-4-27-2-30 2-24 2-11 6-25 7-18 10-23 3-4 1-7-6-1h-2l-2 18-6 4-13 4-12 5-8 1-5-5v8h-4l-4-8-2-6-3 4-3 11-1 7-4 3-8 4-21 15-1-3 9-26 7-14 9-15 6-7 9-11 14-14 8-7 8-6 9-7 10-7 19-10 21-7 8-2-4-5-9-4-2-4-11-3-1-9-6 3-7 1-14-5-8-3 1-3 16-5 13-4 20-3h41l16 3 11 4 6 4 4 1v-34l3-23 4-15 5-12 10-18 10-14 6-7h2l2-4zm-13 102-2 1 1 4 8-1 1-3zm-85 53-1 1v7l3 1 2-4 5-3-1-2z" fill="#1AA062"/>
<path transform="translate(195,561)" d="m0 0 4 1 2 12 4 13 22 1 4 4 5 10 4-1 8-4 3-2h8l13 6-2 4-1 5 4 4-1 7-2 3v3l4 1 11-3h5l-4 5-4 4 1 1 9 2 2 1 13-6 5-1-2-5-10-9-7-6v-2l20 4 9 4h2v-7l-2-7v-4l5 1 1 3 3 1 12 16 4 2 3-9 1-11 3 2 2 10v8l-2 8-1 5 19 6 8 4-1 3h-12v3l11 12 5 10 4 13v6l-4-2-5-7v-2l-6-2-4-3-4 23-2 5 1 7 1 8-4-2-4-6-4-1-1 6v7l-3 8-1-4-2-9-2-5h-2l-5 13-5 8h-2l2-11v-23h-8l-5 5-7 8-8 15-2 5 1 5 4 3v6l2 1h12l4 2v7l-3 4 1 4 2 2v4l-9 5-5 18 2 9h5l-3 1 3 4v2l5 1 17 6 12 6 5 4 7 10 12 7 6 3 2 4-3 1-15-5-5-3-31-7-17-3-15-3-1 8-1 1-10-1-25-6-7-1h-19l-10 2-40 3-3-1h-8l-16 5-20 5-13 2-27 1-20 4-11 2-3-1 1-18 1-1 2-14 4-7 4-2 1-4 5-6 5-3 3-6 2-10v-25l-7-8-2-4 1-5 10-4 9-2 8-10 6-9 12-12 7-6-1-11 1-2 14-7 9-16 3-7 4-16 3-14 2-5 3-13v-7l2-6 1-10 7-1 10-19zm106 87-13 3-1 1v15l-3-4-6-10h-2v33l5 6 4-4 7-11 7-7 11-8 7-6 9-5-1-3zm23 12v3l5 5h3l-1-4-4-4zm-5 3-4 4 3 6 2 2 4-1 1-5-2-5zm-13 13-5 5-2 9-6 5-5 10v29l4-2 10-15 14-15 8-6v-3l-2-1h-11l-11 4 4-5 11-8 1-5-4-2z" fill="#85AF46"/>
<path transform="translate(448,727)" d="m0 0 2 2 3 23 2 4 2 19 4 4 3-1 4-21 2-7 1-10 1-2h2l9 37 6 20 2 4-2 4 3 2 27 1 45 1 189 2 54 1h9l1 2-7 4-2 4 9 3 29 9 24 5 36 6 33 7 14 4v3l-2-1-6 1-8-3-3-1h-9l-12-2-17-3h-3l-9-2h-16l-11-2-18-2-6-1v2l-6 2-26 11-36 6-7 3-2 5-11 2-10 1-58 2-61 3h-24l-8-7 2-5 7-4 1-4-22 5h-8v-2l-9-2-23-4-11 1-6 3-7 5-7 9-1 5 6-1 8-2 16-2h7l10 5v2h2v2l-2 1-79 6-58 5-120 10-56 4-36 2h-18l-1-2 10-21 13-21 13-16 7-8 8-10 4-1h19l20 4 16 4h6l2-8h7l17 4 17 3 22 5 10 5 12 3-2-4-14-7-5-4-6-9-9-6-12-5-13-4-1-2h-3l-3-4v-2l6-1 96 1-2-4-8-3 2-5 4-5 11-16 9-15 9-16 4-6 2-6z" fill="#139BDE"/>
<path transform="translate(1123,190)" d="m0 0 7 1 12 6 10 7h6l2 4 5 4 6 3 7 4 4 3-4 5-11 5h-2v2l4 2 13 13 9 11 10 13 9 13 12 19 15 27 13 29 13 34 12 44 11 53 4 29 4 40 1 22 2 16 2 61 1 1v48l-5 3-12 5-10 3h-21l-16-5-9-5-6-5-1-4 5-6 2-19 2-5 2-35 2-5v-59l-1-13-3-65-1-3-3-34-2-9-2-15-2-10-2-17-5-23-2-6-2-9-7-25-7-16-3-9-24-48-7-11-5-6-3-1-1 5-5 4-3 4-9 1h-9l-7-3-5-4-4-8-1-1v-5l7-3 1-3v-34l3-10 2-4z" fill="#CCA374"/>
<path transform="translate(1100,65)" d="m0 0 2 1-5 17v37l2 8h3l1 2 5-1 5-3 6 2-1 17 1 4 3-5 3-2 3 1 3 3 4 2-3 9-9 14-2 5-1 9-5 8-3 1-3 3-6 1-7 1-5 1v2l-7 4h-7l-8 6-7 8-10 14-3 5-2 6-3 3-9 19-4 9-5 1-3-6-2-5-3-7v-8l2-10-1-2h-5l-10 11-8 10-6 10-8 14-10 19-1 3h-2l1-7 6-15 10-23 3-4 1-7-6-1h-2l-2 18-6 4-13 4-12 5-8 1-5-5v8h-4l-4-8-2-6-3 4-3 11-1 7-4 3-8 4-21 15-1-3 9-26 7-14 9-15 6-7 9-11 14-14 8-7 8-6 9-7 10-7 19-10 21-7 8-2-4-5-9-4-2-4-11-3-1-9-6 3-7 1-14-5-8-3 1-3 16-5 13-4 20-3h41l16 3 11 4 6 4 4 1v-34l3-23 4-15 3-8zm-63 103-1 1v7l3 1 2-4 5-3-1-2z" fill="#018242"/>
<path transform="translate(92,758)" d="m0 0h2v2l5 1 16 8 16 7 7 4 10 3 12 1 5 2h11l8-2h60l16 1h21l9-1 9-3h14l-3 13 2 9h5l-3 1 3 4v2l5 1 17 6 12 6 5 4 7 10 12 7 6 3 2 4-3 1-15-5-5-3-31-7-17-3-15-3-1 8-1 1-10-1-25-6-7-1h-19l-10 2-40 3-3-1h-8l-16 5-20 5-13 2-27 1-20 4-11 2-3-1 1-18 1-1 2-14 4-7 4-2 1-4 5-6 5-3 3-6 2-10z" fill="#C6843C"/>
<path transform="translate(989,584)" d="m0 0h2l-1 11 2 12 3 9 3 2 11-15 11-11 8-6 2-2h3l-2 11-5 15v2l10-3 11-3 16-2h10l3 2-10 6-13 10-11 7v2l7 4 11 6 8 7 7 10 5 11v2l-6-2-16-7-5-4-2 2-6-1-3-2-9-2-5-3v6l-1 4 13 11 12 13 14 19 11 18 8 17 3 4 9 21 8 24 5 21-2 5-6 5-9 3h-16l-1-1-1-26-4-24-5-25-8-21-8-18-10-16-10-13-4-5-2-1h-7l-4 1-5 1-2 2v13l-5 5h2l1 2v13l-2 4 1 8-1 2v7l4 15-1 3-8-12-13-22-4-8-3-2-2 4-8 7 1 3 6 4 5 5 2 6-6-1-5-3-6-1 1 7 12 16 11 21 5 14 3 12-6 3-10 1-2-21-3-15-7-16-7-11-4-4-5-1-3 2-2 8v22l-3-3-6-12-5-2-1 2-1 10h-3l-1-5v-12l-3-1h-3l-2 4-3 3-3-1 5-13 5-6v-6l-2-4 16-5 1-4-1-5v-3h-4l-2 5-3-1v-7l5-17 5-8 8-11 7-7 6-4 1-3-2-3-7-1h-11l2-4 10-5 14-5 7-1h11l-3-7-1-15 2-11 5-12zm-40 108-9 4 1 4 2 2 1 9h3l4-6 5-6 1-6-1-1z" fill="#0A549A"/>
<path transform="translate(322,599)" d="m0 0 5 1 1 3 3 1 12 16 4 2 3-9 1-11 3 2 2 10v8l-2 8-1 5 19 6 8 4-1 3h-12v3l11 12 5 10 4 13v6l-4-2-5-7v-2l-6-2-4-3-4 23-2 5 1 7 1 8-4-2-4-6-4-1-1 6v7l-3 8-1-4-2-9-2-5h-2l-5 13-5 8h-2l2-11v-23h-8l-5 5-7 8-8 15-2 5 1 5 4 3v6l2 1h12l4 2v7l-3 4 1 4 2 2v4l-6 3h-2v-2l-4-1-22-13-7-3v-2l-4-1-13-5-12-5-13-3-15-2-4-4 8-3 9-2 5-2 4-6 5-2h2l3-10 5-18 3-12v-22l-5-2-5 4-6 8h-2v3h-2l-3 9h-4v-8l3-14-4 2-7 6-4 1-1-1v-5h2l2-4 6-8 1-3-15 2 1-5 15-7 8-1 2-5 5-1 4 2h6l2-6 7-9 1 4-3 6v3l4 1 11-3h5l-4 5-4 4 1 1 9 2 2 1 13-6 5-1-2-5-10-9-7-6v-2l20 4 9 4h2v-7l-2-7zm-21 49-13 3-1 1v15l-3-4-6-10h-2v33l5 6 4-4 7-11 7-7 11-8 7-6 9-5-1-3zm23 12v3l5 5h3l-1-4-4-4zm-5 3-4 4 3 6 2 2 4-1 1-5-2-5zm-13 13-5 5-2 9-6 5-5 10v29l4-2 10-15 14-15 8-6v-3l-2-1h-11l-11 4 4-5 11-8 1-5-4-2z" fill="#09599F"/>
<path transform="translate(37,800)" d="m0 0 20 2h24l-4 6-2 4-5 5-3 9-1 9-1 1-1 18 9-1 17-4 7-1 31-1 5 3 10 12 14 19 3 5v6l-6 7-8 11-13 15-12 12-10 8-14 11-20 11h-2v2h-2l-1 6h-2l-9-24-9-29-6-26-5-25-4-35-1-16v-19z" fill="#149BDE"/>
<path transform="translate(1123,190)" d="m0 0 7 1 12 6 10 7h6l2 4 5 4 6 3 7 4 4 3-4 5-11 5h-2v2l4 2 13 13 9 11 10 13 9 13 12 19 15 27 13 29 13 34 12 44 11 53 2 13v8l-24-2-8-3v-1l27 1-1-6-2-6-2-3-9 1h-15l3-3 7-2 8-1v-2h2l1-9h-2l-2-7h-2l-5-6-3-8-3-3-1-5h-2l-3-8-2-7-3-3-5-3-4-8-7-5-7-1-1-2 1-2 9-2 1-4-3-11v-2h-2l-3-7-3-9h-5l-1-4 2-4-3-7-3-4-3-10-2-2-1-7-4-9v-2h-2l-1-8h-2l-3-5v-2l-5-2-3-2h-2l-18-36-7-11-5-6-3-1-1 5-5 4-3 4-9 1h-9l-7-3-5-4-4-8-1-1v-5l7-3 1-3v-34l3-10 2-4z" fill="#B58256"/>
<path transform="translate(105,961)" d="m0 0h46l26 4 30 8 1 1-1 9-5 18-6 15-10 16-13 17-13 16-7 8-3 4-5-2-12-11-14-14-9-11-11-14-8-11-8-13-9-17-3-9 2-6h2v-2l9-5 2 1-2 2 11-2z" fill="#63B7E9"/>
<path transform="translate(1245,38)" d="m0 0h3l-1 5-5 8-10 1v3l6 2 1 4-5 10-6 3-3 4 2 4-4 2h-6l5 5-2 4-6 9-6 4-1 2h-2l3 5v2l26-3h44l17 2 24 5 24 7 6 3-2 2-13 1-13 4-9-7-7-1 3 6 3 5-4 4-10 4-4 2-2-2-4 1-4 5-12 6h-2l-5-6-6-1-1 3 3 5v3l-5-1-1-1-2 5-11 5-5 2-11-2-7-3v-4l-10 1-10-2-7-11-1-10 6-10 2-5-7 2-18 8-12 7-11 9-9 9-8 10-5 4 1-4 6-10 2-4 8-7 10-9 12-8 17-9 3-1-7 1-12 5-5 1-2-1 1-6 5-11 5-10-1-5-3-3v-2h-2l-3-6v2l-6 5-12 16-2 5-3 3-8 14-5 5 1-7 8-14 6-9 4-8 17-17 12-9 15-9 28-14 15-6z" fill="#019150"/>
<path transform="translate(1234,578)" d="m0 0 1 2 4 2 11 7 13 4h16l11-2h5l1-3 1 11 2 61 1 1v48l-5 3-12 5-10 3h-21l-16-5-9-5-6-5-1-4 5-6 2-19 2-5 2-35 2-5z" fill="#CCA475"/>
<path transform="translate(195,561)" d="m0 0 4 1 2 12 4 13 22 1 4 4 5 10 4-1 8-4 3-2h8l13 6-2 4-1 5 3 3-2 5-6 9-3 3-6-1-5-1-2 1-2 5-10 2-13 6-2 3-1-1-8 1-2 1-1 38h-5l-3-2v-2l-6-2-13-8-9-4v2l-5 2h-3l3-26 3-21 1-14 1-5 1-6 2-14 7-1 10-19z" fill="#BBAA9A"/>
<path transform="translate(92,758)" d="m0 0h2v2l5 1 16 8 16 7 7 4 13 4v6l-3 1 2 5h2l1 10 1 1 1-2 1-9 3 2 2 14 1 4h-2l6 9-2 12 4 1-26 7-18 3-27 1-20 4-11 2-3-1 1-18 1-1 2-14 4-7 4-2 1-4 5-6 5-3 3-6 2-10z" fill="#DEA667"/>
<path transform="translate(135,689)" d="m0 0 22 6 15 2h13l31-3 2 4 2 38v10l-2 1h-6l-1-3h-3l-1 5h-7l-1-1-1 2h-6l-4-2-2 4h-17l-14-1-3-2h-10l-2 2h-16l-3-3-7-3-2-2v-10l3-5 7 1 4 3h21l-6-7v-2l-4-2-2-3v-6l-9 2-1 3-8 8h-2l2-4 7-7 3-4 1-6 7-6z" fill="#FDFCFC"/>
<path transform="translate(997,198)" d="m0 0 3 1v6l-4 13-2 6-3 4-2 17v2h2v2h2l1-3h2l2-5h2l2-4 3-3h2v-2l4-3 2 1-5 7h-2l-1 4-8 9-5 5-2 1v-6l-6-1h-2l-2 18-6 4-13 4-12 5-8 1-5-5v8h-4l-4-8-2-6-3 4-3 11-1 7-4 3-8 4-21 15-1-3 9-26 7-14 9-15 6-7 2 2 9-10 10-9 11-9 11-7 4-3h2v-2l7-3 15-8z" fill="#19A062"/>
<path transform="translate(171,614)" d="m0 0h1v9l-4 30-1 11-2 6 8-2v-2l5 1 13 8 10 5v2l7 1 1-38 3-1h8l1-2 2 3 5-1h9l-1 5-7 8-1 2h-2l1 5 7-2 1-3 5-4 3 1-3 14v8h2l4-9h2v-3l5-5 6-7 4-1 4 3v22l-5 20-6 18-9 4-5 6-5-1-2-3-1-13-15-5v7h-1l-1-13-1-3-10 1-21 2h-13l-20-3-16-5-2-3 1-2 14-7 9-16 3-7 4-16 3-14 2-5z" fill="#B58256"/>
<path transform="translate(1135,13)" d="m0 0 3 1-5 8-4 10h-2v2l-5 2v3l5 2v17l-6 2 1 3 3 3-1 5-3 2v2l6 2v8l1 6-4 4 4 2 2 10 2 4 24-24 2 1-11 11-9 16-9 15-1 5 5-6 8-14 2-1 3-7 13-16 4-2v-2l2 1 1 5h2l5 6-1 6-7 14-4 11 7-1 15-6h5l-1 2-19 9-11 8-11 9-7 7-2 1-6 11-5 6-3 5h-2v-7l6-11 6-10 1-5-6-3v-2l-5 1-3 6-2-1-1-4v-7l1-10-6-1-5 4-5-1v-2h-3l-2-3-1-7v-35l5-17h-2l2-6 9-16 10-14 6-7h2l2-4zm-13 102-2 1 1 4 8-1 1-3z" fill="#18A061"/>
<path transform="translate(1123,190)" d="m0 0 7 1 12 6 10 7h6l2 4 5 4 6 3 7 4 4 3-4 5-11 5h-2v2l4 2 13 13 9 11 10 13 5 8v3l-3-1v-2l-9-1-5 1v2h-2l-2 4-5 5h-2l-11-22-7-11-5-6-3-1-1 5-5 4-3 4-9 1h-9l-7-3-5-4-4-8-1-1v-5l7-3 1-3v-34l3-10 2-4z" fill="#B56F40"/>
<path transform="translate(1187,305)" d="m0 0 8 5 3 4v3h2l1 8h2l5 11 1 7 3 4 3 9 4 6 1 6-2 4v2h5l3 4 3 12h2l4 13-1 4-6 2h-4l1 3 6 1 9 7 2 7 5 2 5 5 3 14h2l2 7 3 1 4 10 3 2v2h2l2 4v3h2v7l-1 2h-2v2l-11 3-5 2h13l9-1 4 5 2 9-3 3-24-1-1 3-4-1-3-5 6-1 1 1h6l2-1-2-4-5-2-1-1h-7l-1 4-5 1v2l-5-1-7 1-1-8-2-5-3-34-2-9-2-15-2-10-2-17-5-23-2-6-2-9-7-25-7-16-3-9-5-10z" fill="#CE9961"/>
<path transform="translate(322,599)" d="m0 0 5 1 1 3 3 1 12 16 4 2 3-9 1-11 3 2 2 10v8l-2 8-1 5 19 6 8 4-1 3h-12v3l11 12 3 5v3h-2v-2l-4-2-5-4-2-2h-2v5l-4 1-7-2v-2h-2l-3-7-4-4-2 1-3 5-1-3h-2l-1 3-1 14-3 1-3-5h2l-3-5-2-2-3 1 1 1v6l-2-3v-2l-6 1-1 3 1 4h-8l2 4-7 1-2 4-2 9-6 5-5 10v30l-3 1-1-3-8-4-5-5-6-3v-8l4-13 2-12 1-21-1-15h4l1 34 5 5 7-11 9-10 13-10 9-7 3-2h3l-1-2h-24l-9 2h-4l-1-6 1-3 3-2v-3l3 1 13-6 5-1-2-5-10-9-7-6v-2l20 4 9 4h2v-7l-2-7z" fill="#1EA166"/>
<path transform="translate(1260,194)" d="m0 0 10 4 13 14 11 16 6 10 8 20 4 13 3 21-2 1-11-7-17-11-20-12-1-1v-14l-1-3h-2l-6 11-3-1-1-11-5 5-4 1-18-9-1-14-2-5 5-7 20-4 7-2 7-3 1-9z" fill="#038344"/>
<path transform="translate(1234,112)" d="m0 0h44l17 2 24 5 24 7 6 3-2 2-13 1-13 4-9-7-7-1 3 6 3 5-4 4-10 4-4 2-2-2-4 1-4 5-12 6h-2l-5-6-6-1-1 3 3 5v3l-5-1-1-1-2 5-11 5-6 1-2-5-5-1-1-1v-9h2v2h2v3l3-2-1-4-4-3-2-5v-9l5-10h2l-1-4-2 1-5-5h-11l-2-1h-5l-1-2 7-3z" fill="#058446"/>
<path transform="translate(1086,332)" d="m0 0 5 1v6l-8 22-2 6-2 1h-7v3l5 2 1 5-6 20-3 1-8 1 2 4 5 5-1 14-2 20v12l2 10-1 4-8-16-11-27-12-35-6-27v-22l5-2 1-3 4 1 5 12 4 1 7-3 9-1 6-1 5-2 3-1 2-4 6-2z" fill="#039252"/>
<path transform="translate(1010,134)" d="m0 0h41l16 3 11 4 5 4-2 1 1 7-3 2-1 3-6 3-17 9-5 2-10 2 5-5h-8l-1 7-11 2h-3l-4-5-9-4-2-4-11-3-1-9-6 3-7 1-14-5-8-3 1-3 16-5 13-4z" fill="#1CA164"/>
<path transform="translate(1234,578)" d="m0 0 1 2 4 2 11 7 13 4h16l11-2h5l1-3 1 17-1 4 1 18-11 7-14 7-8 2h-17l-13-1v5h-3v-11l2-5z" fill="#CCA375"/>
<path transform="translate(345,651)" d="m0 0 4 2 4 7v3h2l1 2 9 1 1-5 3-1 5 5 5 4v2l3-1 5 16v6l-4-2-5-7v-2l-6-2-4-3-4 23-2 5 1 7 1 8-4-2-4-6-4-1-1 6v7l-3 8-1-4-2-9-2-5h-2l-5 13-5 8h-2l2-11v-23h-8l-5 5-7 8-8 15-2 5v5h-5l-1 1h-6l-3-1v-2l5-4 10-15 15-16 7-5 1-3h-13l-8 3h-3l2-4 9-7 4-3 1-4-5-2-2-4 6-1 5 3 4-1 1-9 3 1 5 6v2l2-1 1-14 2-3h2l1 2z" fill="#20A166"/>
<path transform="translate(299,781)" d="m0 0h14l-3 13 2 9h5l-3 1 3 4v2l5 1 17 6 12 6 5 4 7 10 12 7 6 3 2 4-3 1-15-5-5-3-31-7-17-3-15-3v5l-4 1-5-3-3-6-3-10-10-10-5-8-2-7 1-6 2-1 22-2z" fill="#CBA577"/>
<path transform="translate(448,727)" d="m0 0 2 2 3 23 2 4 2 19 4 4 3-1 4-21 2-7 1-10 1-2h2l9 37 4 13v6h-22l-1 1-21 2-23 1-10 1-4-2 2-5 4-5 11-16 9-15 9-16 4-6 2-6z" fill="#075198"/>
<path transform="translate(1245,38)" d="m0 0h3l-1 5-5 8-10 1v3l6 2 1 4-5 10-6 3-3 4 2 4-4 2h-6l5 5-2 4-6 9-6 4-1 2h-2v6l-2 2-13 4-4 1-2-5 1-9 1-10 1-5 1-7-2-1h2l-2-10h-6l-5 2v2l-6 3-5 5-1 3-6 5-12 16-2 5-3 3-8 14-5 5 1-7 8-14 6-9 4-8 17-17 12-9 15-9 28-14 15-6z" fill="#078547"/>
<path transform="translate(174,604)" d="m0 0 1 2 15 1 20 2 1 3-1 8-1 23v41h-5l-3-2v-2l-6-2-13-8-9-4v2l-5 2h-3l3-26 3-21 1-14z" fill="#E9F0F3"/>
<path transform="translate(1010,181)" d="m0 0 3 1-1 4 5-1 3 2-1 1 5 3 1 5-1 5v7l7 3-1 6-7 6-1 2h-2v2h-2l-2 4-10 11 1 2 2-1-2 4-10 11-7 12-8 14-10 19-1 3h-2l1-7 6-15 10-23 8-9h2l2-4 7-8 1-3h2l2-4 1-3-4 2v2l-4 1-3 6h-2l-2 5-3 3h-2v-2h-2l-1-6 2-13 4-5 6-24-13 2-17 9-5 1v2l-21 14-10 9-8 7-4 5h-2l-2 4h-1v-5l14-15 8-8 8-7 8-6 9-7 10-7 19-10z" fill="#019150"/>
<path transform="translate(989,584)" d="m0 0h2l-1 11 2 12 3 9 3 2 11-15 11-11 8-6 2-2h3l-2 11-5 15v2l10-3 11-3 16-2h10l3 2-10 6-13 10-15 9-5 1v2l-11 1-5 2h-12l-5-3h-5l-3-2v2l-4 1v2h-8l-3-2v-2l6-1-1-5-1-2-1-15 2-11 5-12z" fill="#06458D"/>
<path transform="translate(265,712)" d="m0 0h1v9l6 2 8 7 7 3 1 4 1 1h6l5-1 6 4v6l2 1h12l4 2v7l-3 4 1 4 2 2v4l-6 3h-2v-2l-4-1-22-13-7-3v-2l-4-1-13-5-12-5-13-3-15-2-4-4 8-3 9-2 5-2 4-6 5-2h2v-2l10-2z" fill="#048444"/>
<path transform="translate(1080,733)" d="m0 0h2l12 24 10 28 6 25-2 5-6 5-9 3h-16l-1-1-1-26-3-18v-13l5 2h2l2-11 1-4v-8l-3-9z" fill="#04448B"/>
<path transform="translate(1260,194)" d="m0 0 10 4 5 6-1 2 4 7v7l-2 7-4 5-1 3h-3l-2 9-2 4-1-3h-2l-6 11-3-1-1-11-5 5-4 1-18-9-1-14-2-5 5-7 20-4 7-2 7-3 1-9z" fill="#059253"/>
<path transform="translate(1075,217)" d="m0 0 4 1 1 6-1 1-1 13 1 24-3 12-5 10-4 4h-2l-2 6-5 5-5 3h-2l-2 5-6 2-2-1v-19l6-23 6-15 6-12 10-15z" fill="#47AF74"/>
<path transform="translate(191,784)" d="m0 0h53l24 2-2 1 1 10 5 10 10 10 3 7-1 4-5-11-6-5-4-4-2 5-4 7h-2l-1-4-5 2h-3l-4-2v6l-2 1-4-2-4-9-3 9-3-1-1-5-7-2v-2l-4 1-2-4-2-1v-3l-4-2-1-7-3-1-1-2-4-2-3 1-1-3 1-2h-9z" fill="#CD985F"/>
<path transform="translate(171,614)" d="m0 0h1v9l-4 30-1 11-2 6 8-2v-2l5 1 13 8 10 5v2l5 2 8 7v2l-3 2-11 2-15 1h-13l-20-3-16-5-2-3 1-2 14-7 9-16 3-7 4-16 3-14 2-5z" fill="#D44E1A"/>
<path transform="translate(329,645)" d="m0 0h7l3 1-2 12-1 14-3 1-3-5h2l-3-5-2-2-3 1 1 1v6l-2-3v-2l-6 1-1 3 1 4h-8l2 4-7 1-2 4-2 9-6 5-5 10v30l-3 1-1-3-8-4-5-5-6-3v-8l4-13 2-12 1-21-1-15h4l1 34 5 5 7-11 9-10 13-10 9-7 3-2h3l-1-2-16-1v-1l18-1z" fill="#CC9962"/>
<path transform="translate(1135,13)" d="m0 0 3 1-5 8-4 10h-2v2l-5 2v3l5 2v17l-6 2 1 3 3 3-1 5-3 2v2l6 2v8l1 6-4 4 4 2v2l-7 2h-5l-1-3-7 3-5 5-4 2-2-4v-16l2-16 2-6h-2l2-6 9-16 10-14 6-7h2l2-4z" fill="#46AE74"/>
<path transform="translate(1154,169)" d="m0 0 4 1 4 4v2l3 1v2l5 1 6 13 7 6 4 8-3 5-2 9-7-2-7-5-5-3-5-4v-3l-6 1-10-7-12-6-9-1 1-5 4-6 13-5z" fill="#019050"/>
<path transform="translate(1033,370)" d="m0 0 3 3v4h2l3 5 4 6 6 3 3 4 5 2 2 5 7 7-1 14-2 20v12l2 10-1 4-8-16-11-27-12-35-3-12v-7z" fill="#078647"/>
<path transform="translate(1118,228)" d="m0 0 5 1 3 3 6 3h10l10-5h2l1 7-1 12-4 9-7 7-9 1h-9l-7-3-5-4-4-8-1-1v-5l7-3 1-3h2z" fill="#D44A16"/>
<path transform="translate(881,722)" d="m0 0h1l2 6h10v2l-5 3 1 4 6 5 1 5-5-1-3-3h-5l1 4 7 8 8 14 3 7 3 10 2 6-5 3h-6l-1-17-6-17-9-14-5 1-2 8v14l-2-1-3-7-2-3v-3h-2l-2 13-3-4-1-12-5 5-3 1 1-6 7-10-2-6 5-1 6 1v-13l5 5v2h2l2-5z" fill="#10599E"/>
<path transform="translate(299,781)" d="m0 0h14l-1 5-6 2-4 2-5-1v3l-9 2-1 3-4 1-5-5-2 1 2 5 2 4h2v2l4 1 2 4v7l4 5 3 10 1-7-1-10 2-4 7 6 5 4 12 7 6 4 4 3 6 2-4 1-25-5-11-2v5l-4 1-5-3-3-6-3-10-10-10-5-8-2-7 1-6 2-1 22-2z" fill="#F9DDB1"/>
<path transform="translate(134,779)" d="m0 0 17 5v6l-3 1 2 5h2l1 10 1 1 1-2 1-9 3 2 2 14 1 4h-2l6 9-2 12 4 1-8 2h-5l-1-5-3 1-1-3-4-2 1-3 1-7-3-1-5 8-5 1 4-12-1-2-3-1 1-9-1-5h-3v-5h2l-1-6 4-1v-2l-3-1z" fill="#CD985F"/>
<path transform="translate(1037,220)" d="m0 0 4 2 2 3 1 9 2 3v4h2l-1 4-3 3-9 19-4 9-5 1-3-6-2-5-3-7v-8l2-10-1-2h-6v-2l4-4h2l2-4h2v-2l5-4z" fill="#019150"/>
<path transform="translate(195,561)" d="m0 0 4 1 2 12 4 13 2 2 1 9 2 5-1 5h-19l-15-2v-2h-2l1-6 2-14 7-1 10-19z" fill="#D44D19"/>
<path transform="translate(272,614)" d="m0 0 1 4-3 6v3l7 1-2 1 1 8-4 2-2 5-5 3-5 2-4 2h-4l-5 2h-3l-1 4h-4l-8 7-4 1-1-1v-5h2l2-4 6-8 1-3-15 2 1-5 15-7 8-1 2-5 5-1 4 2h6l2-6z" fill="#149BDD"/>
<path transform="translate(1e3 678)" d="m0 0h1l1 12-5 5h2l1 2v13l-2 4 1 8-1 2v7l4 15-1 3-8-12-13-22-4-8-6-5v-4l5-1 1-3 3-1 1-2h2v-2l10-5h4v2h2z" fill="#1A9DDE"/>
<path transform="translate(527,854)" d="m0 0 11 1 17 3 10 4h7l17-4h5l-1 5-7 4-1 2h-2l-1 2h-8l-16-4-9-1-4-2-13 1-7 6h-2v2l-19 6-4-1v-5l8-10 10-7z" fill="#DDA566"/>
<path transform="translate(224,833)" d="m0 0h5l-2 4-5 5v-2h-4l-1 3-7 4-9 3-19 1-4-2h-8l-9 1h-9l-5-1-1-4 4-1v-2l21-6 2-1h8l7 1z" fill="#66B9E9"/>
<path transform="translate(325,664)" d="m0 0 3 1 5 6v2h2v24l-2 4-2 1v-2h-8l-5 5-7 8-8 15-2 5v5h-5l-1 1h-6l-3-1v-2l5-4 10-15 15-16 7-5 1-3h-13l-8 3h-3l2-4 9-7 4-3 1-4-5-2-2-4 6-1 5 3 4-1z" fill="#219FDF"/>
<path transform="translate(908,259)" d="m0 0h3l1 5-1 2 2 1 1 6 3 1 2 1 1-3h2l-1 8-2 12-4 3-8 4-21 15-1-3 9-26 7-14z" fill="#049252"/>
<path transform="translate(329,645)" d="m0 0h7l3 1-2 12-1 14-3 1-3-5h2l-3-5-2-2-3 1 1 1v6l-2-3v-2l-6 1-1 3 1 4h-8l2 4-7 1-2 4-2 9-5 4-7-2-4 2-4 5-4-1 3-6 3-1 7-11 9-10 13-10 9-7 3-2h3l-1-2-16-1v-1l18-1z" fill="#C88842"/>
<path transform="translate(89,808)" d="m0 0 5 2 6 4 2 4-1 4 5-1 1 1v5l4-1 1 4-4 5-5 7-4-2-5-1-1 1-9 2-8-1-4-6-1-7h2l6-9 4-4 3-1z" fill="#CE9960"/>
<path transform="translate(1123,190)" d="m0 0 7 1 12 6 10 7h6l2 4 5 4 6 3 4 5v2h-6l-6 4-8-7-4-4-2-3-14-2h-5l-7 5-6 1v-10l3-13z" fill="#D34C18"/>
<path transform="translate(212,785)" d="m0 0h23l7 2 12 1 2-2h12l-2 1 1 10 5 10 10 10 3 7-1 4-5-11-6-5-4-5h-3v-2h-11l-9-1h-7l-5-6h-5l-4-2-5-4h-7l-2-3z" fill="#E0A666"/>
<path transform="translate(1090,95)" d="m0 0h1v47l4 5 1 8 1 4-3 5-5 5-4 3-2 1-36 1-2-2 9-2 10-6 8-4 3-2h3l1-4 3-1-2-8 8 1v-34z" fill="#019150"/>
<path transform="translate(346,631)" d="m0 0h5l1 9 4 2 5 5 8 6 9 10 3 5v3h-2v-2l-4-2-5-4-2-2h-2v5l-4 1-7-2v-2h-2l-3-7-4-4-2 1-3 5-1-3h-2l-1 2 1-9 1-2h-10l-3 1-3-3 5-4 9-2 8-4z" fill="#038D54"/>
<path transform="translate(1097,125)" d="m0 0 2 1v2h3l1 2 5-1 5-3 6 2-1 17 1 4 3-5 3-2 3 1 3 3 4 2-3 9-6 10-5-1-2-2h-4l-3-4 1-12-3-2-7 1-2-2-3-12-1-2z" fill="#01904F"/>
<path transform="translate(115,728)" d="m0 0 7 1 4 3 23 1v4h5l1 6-3 1-1 2-9 3-2 2h-16l-3-3-7-3-2-2v-10z" fill="#A6CDF0"/>
<path transform="translate(1010,134)" d="m0 0h41l13 2-2 3h-2l-1 5-3 5-5 2-9 1h-10l-12-6-3-4 1-7h-8z" fill="#47AF75"/>
<path transform="translate(159,714)" d="m0 0h6l1 1-1 7-3 3 3 3v3l4 2 5 5 5 4 1 2 4 1v2l4 1-2 4h-17l-14-1-3-2-7-1 1-2h5l1-3h3l-1-6-5 1-1-5 2-1 4 2 1-1 1-9 1-1 1-8z" fill="#EBF1F4"/>
<path transform="translate(977,353)" d="m0 0h6v10l-11 23-4 16-1 17h-2l-4-27v-35l2-3 4 4h3v2l3-1 1 1 3-5z" fill="#049252"/>
<path transform="translate(128,810)" d="m0 0h1l1 6-3 7 5 1 1 6-1 6 3 3-1 5 3 2-13 2-27 1-9 1v-2l4-1 19-1h8v-3l-3-1-7 2-2-1 2-5 5-7-4 3-2-1 8-9 1-2h2l2-4z" fill="#CAA57A"/>
<path transform="translate(1292,560)" d="m0 0 2 1 1 30-16 3h-16l-13-4-11-7-5-5v-5l4 2 3 5 10 6 16 4h9l14-1-3-7-2-7-4-6-10 3-12 3-7 1h-8l1-2 21-5 18-6z" fill="#CD9A63"/>
<path transform="translate(1135,13)" d="m0 0 3 1-5 8-4 10h-2v2l-5 2v3l5 2v17l-6 3-1 2-5-1-2-8 1-2-6 1-1 7-3 1v6l-5 10 1-8v-3l-1-2 11-20 10-14 6-7h2l2-4z" fill="#1EA265"/>
<path transform="translate(349,691)" d="m0 0h9l1 1-1 9 2 2 2 1 1 7 1 8-4-2-4-6-4-1-1 6v7l-3 8-1-4-2-9-2-5h-2l-5 13-5 8h-2l2-11v-11h3l5-5 3-5 6-7z" fill="#209FDF"/>
<path transform="translate(322,599)" d="m0 0 5 1 1 3 3 1 7 9v6l-3 3-5 1-2-1-2 4-4 3-7 1-3-1-16-16-3-2v-2l20 4 9 4h2v-7l-2-7z" fill="#059152"/>
<path transform="translate(127,705)" d="m0 0h1v5l-11 12-2 3 6-5 5-6 5-2h4l2 7 7 8 4 5v1h-22l-6-4h-5l-3 7-6-1-2-2 6-8 6-9 5-5z" fill="#D3531F"/>
<path transform="translate(473,776)" d="m0 0h9l2 2 3 10v6h-22l-1 1-21 2h-13l-4-2 3-2h4v-2l4-1 1 1h9l1-5 7 1 5 2 1 4h2l1-10 4-1 4 1v-6z" fill="#07559C"/>
<path transform="translate(1134,246)" d="m0 0 1 2 5-1 10 6 2-1-1 5-5 4-3 4-9 1h-9l-7-3-3-3 1-4 3-3v-2l6-3h9z" fill="#B56E3E"/>
<path transform="translate(472,738)" d="m0 0h2l9 37-1 2h-9l-1 6h-8v8l-1 2h-2l-3-8-1-9 4 3 3-1 4-21 2-7 1-10z" fill="#189CDE"/>
<path transform="translate(261,653)" d="m0 0 5 2 1 1v22l-4 17h-2l-3-12-1-5-1-2h-6v2l-7 1 1-6 2-4h2v-3l5-5 6-7z" fill="#B6A897"/>
<path transform="translate(1064,219)" d="m0 0 1 2-6 10-9 19-5 12-5 15-4 17-2 12-2 4-3-1v-8l4-24 7-20 7-14 3-7 8-12z" fill="#45AE73"/>
<path transform="translate(448,727)" d="m0 0 2 2 3 23 2 4 1 6v10l-7 3-4 1-1-3h-2l-1-4v-18l3-12v-3l3-8z" fill="#1C9EDF"/>
<path transform="translate(265,712)" d="m0 0h1v9l6 2 8 7 3 2h-9l-3-1v-2h-2v2l-5-1v-2h-6l-5 2h-5l-3 4-7-1-1 4 2 1-13-1-4-4 8-3 9-2 5-2 4-6 5-2h2v-2l10-2z" fill="#179F60"/>
<path transform="translate(270,651)" d="m0 0 2 3 2 13-1 21-3 15-3 10-8 3h-3l1-6 5-15 4-17 1-7 1-17z" fill="#04478F"/>
<path transform="translate(1135,177)" d="m0 0h5l2 4-1 13 8 2 2-1 5 1 1-4h6v11l-1 6-4-2v-3l-6 1-10-7-12-6-9-1 1-5 4-6z" fill="#017D49"/>
<path transform="translate(305,747)" d="m0 0 3 1h12l4 2v7l-3 4 1 4 2 2v4l-6 3h-2v-2l-4-1-10-6-1-3 2-7 1-7z" fill="#08488F"/>
<path transform="translate(489,797)" d="m0 0h2l-2 4-8 3-1 3-4 1h-38l-11-1-10-5v-2h62l8-1z" fill="#06488F"/>
<path transform="translate(1252,234)" d="m0 0 4 1 7-1 2 1-3 9-5 8-2 4-3-1-1-11-5 5-4 1-17-9v-5l10 2 5-1 7-2z" fill="#0D894E"/>
<path transform="translate(652,775)" d="m0 0 4 1 1 7 4 2v2l-7 1-16 2-21 6h-2l1-4 5-5 6-5 6-2 13-2z" fill="#E1AD72"/>
<path transform="translate(218,717)" d="m0 0h1l1 29-2 1h-6l-1-3h-3l-1 5h-7l-1-1-1 2-3-1h2v-15l3-3 6-2 2 1v-2l6 2 4 2z" fill="#E5EDF2"/>
<path transform="translate(487,791)" d="m0 0 2 4v3l-2 2-8 1h-49l-13-1 1 2 3 1v2h-6l-1-6 6-2 23-1 21-2 2-1h20z" fill="#E9F2FA"/>
<path transform="translate(170,649)" d="m0 0 1 2 1-2 17 2 10 1 1 1v10h-22l-10-1-1-1v-8z" fill="#FDFDFD"/>
<path transform="translate(287,705)" d="m0 0h1l1 30-3 1-1-3-8-4-5-5-6-3v-8h2l1 2 10-5 1-2 7-1z" fill="#C7A371"/>
<path transform="translate(335,816)" d="m0 0 6 2 10 5 5 4 7 10 12 7 6 3 2 4-3 1-15-5-5-3-10-3-1-5v-3l-3-5-2-1-1-5-4-1-4-2z" fill="#D6A975"/>
<path transform="translate(297,811)" d="m0 0 7 6 5 4 12 7 6 4 4 3 6 2-4 1-25-5-11-2v5h-1v-11l-1-10z" fill="#F0DAB5"/>
<path transform="translate(313,664)" d="m0 0 3 1 1 7h-8l2 4-7 1-2 4-2 9-5 4-7-2-4 2-4 5-4-1 3-6 3-1 7-11 8-9h3l1 5h4v-2h2l1-4z" fill="#B8875D"/>
<path transform="translate(167,663)" d="m0 0 17 1 17 2 1 7 3-1 2 1 2 11h-5l-3-2v-2l-6-2-13-8-9-4v2l-5 2h-3l1-6z" fill="#FAF9F8"/>
<path transform="translate(1182,126)" d="m0 0h8l-3 3h-2v2l-8 4-11 6-10 7-10 9-9 10-7 8-2 1 1-4 6-10 2-4 8-7 10-9 12-8z" fill="#018444"/>
<path transform="translate(115,728)" d="m0 0 7 1 4 3 6 1-2 1 1 6v10h-8l-2-2-7-3-2-2v-10z" fill="#F8FAFB"/>
<path transform="translate(135,689)" d="m0 0 22 6 15 2h27v2l-11-1 1 7-1 4h-3v-6l1-2-7-1-2 2-1 7h-3v-9l-6-1-3 1-1 7h-3l-1-2v-6l-7-1-1 6h-3l-2-4-2-2-4-1-1 5-4-2z" fill="#D3E3F0"/>
<path transform="translate(171,614)" d="m0 0h1v9l-4 30-1 11-2 6 2 1-7 2-6 3-3-1 10-20 4-16 3-14 2-5z" fill="#B88A62"/>
<path transform="translate(1280,512)" d="m0 0h9l4 36v12l-4 1-1-5v-10l-4-8-2-17-2-6z" fill="#CD9B63"/>
<path transform="translate(171,636)" d="m0 0h11l18 2 1 4-1 5-31-1 1-9z" fill="#FEFEFE"/>
<path transform="translate(552,858)" d="m0 0 9 2 6 2 9-1 13-3h5l-1 5-7 4-1 2h-2l-1 2h-8l-16-4-9-1-2-2 10-1 2-1-7-3z" fill="#C6A47E"/>
<path transform="translate(969,261)" d="m0 0 5 1 2-1 1 8-7 3-16 6-2 1h-9l4-9 7-3 10-3 5-1z" fill="#079354"/>
<path transform="translate(966,633)" d="m0 0h10l-2 4-2-1-1 1-6 5 5 1 1 2-4 3h-9l-7-1h-11l2-4 10-5z" fill="#07458C"/>
<path transform="translate(368,660)" d="m0 0 7 6 4 3v2l3-1 5 16v6l-4-2-5-7v-2l-6-2-5-6-1-4-2-2 2-6z" fill="#1A9F63"/>
<path transform="translate(897,281)" d="m0 0 2 2-1 8 3 3 8 1v3l-11 7-10 8-3 1 1-5 8-24z" fill="#09874A"/>
<path transform="translate(983,769)" d="m0 0 4 2 6 16 3 12-6 3-10 1v-10l2-2v2l5-1-1-10-4-12z" fill="#054C92"/>
<path transform="translate(1203,217)" d="m0 0 5 1 8 1v17l-6-1-9-4-2-4v-6l1-2h3z" fill="#079354"/>
<path transform="translate(571,823)" d="m0 0h19l2 1 3 5 1 4-4 2-4-4v-3l-12 1v2l-10 4h-5l-1-3 1-2h2v-2l5-2v-2z" fill="#D6BF9B"/>
<path transform="translate(977,141)" d="m0 0h7l2 9-1 5h-2l-1 2-14-5-8-3 1-3z" fill="#0B9456"/>
<path transform="translate(1119,180)" d="m0 0h1l-1 7-4 6-3 1-3 3-6 1-7 1-5 1v2l-7 4h-7-3l5-5 8-4 5-2 8-2 12-5 6-4z" fill="#019150"/>
<path transform="translate(527,854)" d="m0 0 11 1 7 1v1h-23l-4 1-1 10-4 6-7 3-4 2-2-1v-5l8-10 10-7z" fill="#DAD1B8"/>
<path transform="translate(974,761)" d="m0 0 4 1v3l3 1 2-2 2 5-2 2 4 11 1 11h-8l-5-26z" fill="#0B589D"/>
<path transform="translate(1234,573)" d="m0 0 4 2 3 5 10 6 16 4h9l9-1h9l1-2v4l-16 3h-16l-13-4-11-7-5-5z" fill="#B5794B"/>
<path transform="translate(291,637)" d="m0 0 3 1 7-1 2 3 8 3 1 2-3 3-17 3h-4l-1-6 1-3 3-2z" fill="#099358"/>
<path transform="translate(448,786)" d="m0 0 7 1 5 2 1 5 2 1-20 2h-13l-4-2 3-2h4v-2l4-1 1 1h9z" fill="#044990"/>
<path transform="translate(347,638)" d="m0 0 11 7 2 1 1 5-4 1-1 4h-2l-1-3-4-2-1-3-7-1-3-2-8-1 2-2 8-1z" fill="#018242"/>
<path transform="translate(652,775)" d="m0 0 4 1 1 7 4 2v2l-7 1-20 2-2-4 2-2 7-1h7l-5-2-1-2z" fill="#F6DBB0"/>
<path transform="translate(1161,87)" d="m0 0h2v2l-6 5-12 16-2 5-3 3-8 14-5 5 1-7 8-14 6-9 4-8 5-4 6-4z" fill="#019150"/>
<path transform="translate(1215,296)" d="m0 0 4 4 9 16 10 18 4 9-1 5-5-5-3-5-3-7v-5l-4-9-4-4-5-9-2-4z" fill="#B57041"/>
<path transform="translate(969,380)" d="m0 0 3 2-1 7-3 13-1 17h-2l-3-21v-15h3l1-2z" fill="#0D8A4F"/>
<path transform="translate(894,768)" d="m0 0 6 2 3 6 3 10 2 6-5 3h-6l-1-17-2-6z" fill="#084D93"/>
<path transform="translate(335,682)" d="m0 0 2 3 5 7 1 2v9l-6 7h-2l-1 3-2-2v-10l1-5h1z" fill="#07874C"/>
<path transform="translate(351,632)" d="m0 0 4 4 15 4 10 5-1 3h-12l-1 2-5-2-5-4-4-4z" fill="#21A26A"/>
<path transform="translate(985,263)" d="m0 0 3 1 1 3-2 8-10 18-6 13h-2l1-7 6-15z" fill="#0B8B4E"/>
<path transform="translate(1067,649)" d="m0 0 5 4 8 16v2l-6-2-16-7 3-4 4-1 2-1-1-5z" fill="#105196"/>
<path transform="translate(1296,627)" d="m0 0 1 3-6 4-9 5-8 4-9 3h-21l-10-3-1-2 14 1h17l13-4 16-9z" fill="#B58054"/>
<path transform="translate(306,714)" d="m0 0 2 1-3 5v5l-4 8v5h-5l-1 1h-6l-3-1v-2l5-4 8-12z" fill="#0F5DA2"/>
<path transform="translate(951,217)" d="m0 0v3l-4 5-11 9-11 10-3 4h-2l-2 4h-1v-5l14-15 8-8 7-6z" fill="#0A8A4B"/>
<path transform="translate(1151,141)" d="m0 0 3 1-9 8-3 5-5 4-6 11-5 6-3 5h-2l2-8 8-13 6-8z" fill="#41AD71"/>
<path transform="translate(1e3 242)" d="m0 0 3 2 2-1-2 4-10 11-7 12-2 1-1-7v-4l7-8h2l2-4z" fill="#039252"/>
<path transform="translate(329,645)" d="m0 0h7l3 1-3 17-5-1-4-4v-2l-3-1 1-2h2v-5z" fill="#CF521F"/>
<path transform="translate(127,705)" d="m0 0h1v5l-11 12-1 5 2 1-3 1-3 7-6-1-2-2 6-8 6-9 5-5z" fill="#C08A55"/>
<path transform="translate(1121,76)" d="m0 0h5l1 1v8l1 6-6 5-5-1-1-5 4-13z" fill="#21A369"/>
<path transform="translate(273,651)" d="m0 0 3 1 1 34 3 3-1 4-5 3-2 2-1-4 2-18v-9l-1-15z" fill="#C4AE97"/>
<path transform="translate(1279,662)" d="m0 0 2 1-11 10-14 7-5 2-14 2h-10v-3l18-2 13-4 11-6z" fill="#B57B4E"/>
<path transform="translate(1231,505)" d="m0 0h3l2 7-1 9 1 5v19l-3 3-2-16z" fill="#CE9A62"/>
<path transform="translate(1071,379)" d="m0 0 3 1 1 2v7l-4 10-7-1-2-4 2-7 4-4z" fill="#078548"/>
<path transform="translate(472,738)" d="m0 0h2l6 25v5l-8-1v-11l-1-2v-14z" fill="#0B559A"/>
<path transform="translate(448,727)" d="m0 0 2 2v8l-1-2-2 2 1 20-2 2v9l-4-1v-15l2-13v-3l3-8z" fill="#259DDC"/>
<path transform="translate(1292,560)" d="m0 0 1 4-25 9-16 3h-8l1-2 21-5 18-6z" fill="#B57B4D"/>
<path transform="translate(946,742)" d="m0 0 1 3v22l-3-3-6-12-5-2v-3l2-2 10-1z" fill="#32A5E2"/>
<path transform="translate(1135,13)" d="m0 0 3 1-5 8-4 10h-2v2l-5 2h-3v3h-2l1-7 8-9h2l2-4z" fill="#0F975B"/>
<path transform="translate(346,631)" d="m0 0h5l1 9 4 2-1 2-8-5-7 3-10 1-1 3-3 1-3-3 5-4 9-2 8-4z" fill="#018E50"/>
<path transform="translate(206,657)" d="m0 0 2 2v20h-1v-6h-3l-2 2-1-2v-7l-26-2-8-1 1-2 24 2h13z" fill="#A5CDF1"/>
<path transform="translate(118,803)" d="m0 0 3 1 1 6-5 7-3 5-4 4h-2v-7z" fill="#CCA475"/>
<path transform="translate(174,604)" d="m0 0 1 2 13 1 4 2 1 5-3 2h-5l-9-3-3-2z" fill="#A8CEEF"/>
<path transform="translate(1011,229)" d="m0 0 2 1-5 7h-2l-1 4-8 9-5 5-2 1v-6l-6-2 1-3h4v2h2v2h2l1-3h2l2-5h2l2-4 3-3h2v-2z" fill="#30A770"/>
<path transform="translate(589,858)" d="m0 0h5l-1 5-5 3-5 1-5-1h-9l-4-2v-2h7z" fill="#ECD2AB"/>
<path transform="translate(1063,604)" d="m0 0h10l3 2-10 6-4 1-7-1-2-7z" fill="#1967AA"/>
<path transform="translate(114,830)" d="m0 0v3l-7 10 6-1 4-1 3 2-1 4h-17l1-7 5-6z" fill="#F9DDB1"/>
<path transform="translate(211,694)" d="m0 0h5l2 4v11l-3-1-4 1-2-1v-9l-2-2z" fill="#E0EAF1"/>
<path transform="translate(282,643)" d="m0 0 4 6 2 9v9h-3l-7-13 1-4h2z" fill="#104F94"/>
<path transform="translate(237,648)" d="m0 0 4 4v2h-2l-1 4-7 6-4 1-1-1v-5h2l2-4 5-6z" fill="#0C63A6"/>
<path transform="translate(882,741)" d="m0 0 4 1-2 1 1 4 7 8 8 14-2 1-5-1-4-9-8-13-1-2h2l-1-3z" fill="#2675B4"/>
<path transform="translate(242,658)" d="m0 0 1 2h3l1 3h3v3h-2v3h-2l-3 9h-4v-8z" fill="#054E94"/>
<path transform="translate(1090,95)" d="m0 0h1v47l1 6-5-1 1-35z" fill="#4FB095"/>
<path transform="translate(420,797)" d="m0 0h13l1 2h37l8 1v1h-49l-13-1 1 2 3 1v2h-6l-1-6z" fill="#94C7EF"/>
<path transform="translate(169,697)" d="m0 0h30v2l-11-1 1 7-1 4h-3v-6l1-2-7-1-2 2-1 7h-3v-9l-5-1z" fill="#C8DDEA"/>
<path transform="translate(955,637)" d="m0 0 2 1v2l2 1-1 6h-18l2-4 10-5z" fill="#0D579C"/>
<path transform="translate(191,784)" d="m0 0h53l16 1-3 3-4 1-13-1-5-2-44-1z" fill="#CCA272"/>
<path transform="translate(999,185)" d="m0 0 3 1-8 4-3 2-4 2-5 4-10 4-5 4-7 4-2-1 13-10 22-12z" fill="#22A368"/>
<path transform="translate(311,801)" d="m0 0 1 2h5l-3 1 3 4v2l5 1-2 6-5 1-6-6v-3h2l-1-5z" fill="#E9D5B1"/>
<path transform="translate(113,734)" d="m0 0h9l1 3-2 6-2 4-5-2-2-2z" fill="#89C3ED"/>
<path transform="translate(228,644)" d="m0 0h9l-1 5-7 8-2 2-1-3 1-2h-2l1-7-3-2z" fill="#C0A682"/>
<path transform="translate(557,876)" d="m0 0 19 1 8 3-2 2h-21z" fill="#57B3E8"/>
<path transform="translate(1139,104)" d="m0 0 1 2-7 12-3 3h-10l-1-4 2 2 8-1 1-2h-7v-2l4-2 2-5 3 2v2l5-5z" fill="#6BB995"/>
<path transform="translate(322,599)" d="m0 0 5 1 1 3 3 1 6 9-5-2-7 3-3-11z" fill="#0B894B"/>
<path transform="translate(545,857)" d="m0 0 9 2 6 3-3 2h-12l-9-1 2-2v-3h7z" fill="#C87D3C"/>
<path transform="translate(91,788)" d="m0 0 3 3-1 7-3 7-3 1-1 2-4-3 2-4 4-5z" fill="#CF9B63"/>
<path transform="translate(322,697)" d="m0 0m-1 1v3l-9 11-6 10-2-3 2-4-6 5 2-4 14-15z" fill="#219BDB"/>
<path transform="translate(1295,637)" d="m0 0 2 1v13l-1 2-7 2-1-3 3-9v-4z" fill="#CE9960"/>
<path transform="translate(1133,259)" d="m0 0h15l-5 6-9 1h-9l-4-2 12-3z" fill="#C78640"/>
<path transform="translate(240,655)" d="m0 0 3 1-3 14-1 8-2-3 1-6-4-1-2-5 2-1 1-3z" fill="#C3A277"/>
<path transform="translate(1266,515)" d="m0 0h6l5 3 1 10-1 1 1 5-4-4-4-7z" fill="#CE9960"/>
<path transform="translate(132,701)" d="m0 0 1 4v5h4l-1 3-10 1-1 3-8 8h-2l2-4 7-7 3-4 1-6z" fill="#FCFCFB"/>
<path transform="translate(1047,613)" d="m0 0 5 2h4l1-2 4 3-10 7-3 2h-3l-1-3z" fill="#0E579C"/>
<path transform="translate(1030,584)" d="m0 0h3l-2 11-3 9-3-3-2-5 3-5v-3zm-7 6 2 1z" fill="#105EA3"/>
<path transform="translate(121,780)" d="m0 0h1v5l-2 7-3 10-2 5h-2l-1 2-1-4 5-14 3-9z" fill="#CE9960"/>
<path transform="translate(443,738)" d="m0 0 2 1-3 12h-2l-2 8-6-2 8-16z" fill="#0C4D93"/>
<path transform="translate(474,786)" d="m0 0h6l4 1 3 1v6h-14z" fill="#03438B"/>
<path transform="translate(158,662)" d="m0 0 2 2-1 2h2l1-2v4l1-2h2l1-2-1 6 2 1-7 2-6 3-3-1z" fill="#BB9E85"/>
<path transform="translate(324,657)" d="m0 0 5 2 4 3 3 1v9l-3 1-3-5h2l-3-5-2-2-3 1 1 1v6l-2-3v-2l-4-1 2-4z" fill="#D6E4ED"/>
<path transform="translate(172,609)" d="m0 0 4 3 12 4-1 3-15 1z" fill="#F6DBB0"/>
<path transform="translate(1225,236)" d="m0 0 10 2 4 1 1 4-2 2 1 2-5-1-9-5z" fill="#038545"/>
<path transform="translate(417,800)" d="m0 0h25l26 1-1 2-25 1-23-3-1 2z" fill="#0965AB"/>
<path transform="translate(447,735)" d="m0 0h2l2 3v20l-4 1-1-23z" fill="#085298"/>
<path transform="translate(1215,296)" d="m0 0 4 4 9 16 5 10-4-1-3-8-4-4-5-9-2-4z" fill="#B57345"/>
<path transform="translate(115,728)" d="m0 0 7 1 4 3 6 1-2 1-1 3-5-2-1 4-1-4-9-1-1 3 1-6z" fill="#E0E9EE"/>
<path transform="translate(198,666)" d="m0 0h3l1 7 3-1 2 1 2 11h-5l-3-2v-2l-2-1 1-12z" fill="#E6E8E6"/>
<path transform="translate(652,775)" d="m0 0 4 1 1 7 3 2h-6v-1l-10-2-2-3z" fill="#FBF8F4"/>
<path transform="translate(1e3 333)" d="m0 0h4l-2 4-6 7h-5l-2-2v-3h2v-2z" fill="#049253"/>
<path transform="translate(1280,148)" d="m0 0h3l1 4-13 7h-2l-4-5 8-2z" fill="#119659"/>
<path transform="translate(321,646)" d="m0 0h8l-2 7h-2v2l2 1-1 2-5 2-2 1-2-4 5-5 4-1-1-2-16-1v-1z" fill="#BA8E70"/>
<path transform="translate(1291,596)" d="m0 0 2 2 3 11 1 18-4-4-1-12-1-4-1-10z" fill="#CE9960"/>
<path transform="translate(1298,266)" d="m0 0 5 2 4 8-4 3h-3l-4-8 1-4z" fill="#019150"/>
<path transform="translate(970,749)" d="m0 0 5 5v3l4-1 3 6-1 5-1-2h-2l-1-3-3-1-1 2-4-10z" fill="#0E5297"/>
<path transform="translate(335,682)" d="m0 0 2 3 5 7 1 5-9 2-1 2v-5h1z" fill="#039251"/>
<path transform="translate(127,705)" d="m0 0h1v5l-11 12h-4l2-5 5-5z" fill="#B4754C"/>
<path transform="translate(140,697)" d="m0 0 1 3-1 10-3 3v-3h-4l-1-5 2-6h3l1 2z" fill="#E9F1F7"/>
<path transform="translate(929,272)" d="m0 0 2 1 4-1 5 2-1 2h-3v8h-4l-3-5z" fill="#13985A"/>
<path transform="translate(414,787)" d="m0 0h2v6h2l1 4-7-1 1 2h-6v-4l5-6z" fill="#0A4B92"/>
<path transform="translate(1175,73)" d="m0 0 2 1-2 4-6 3-14 13-4 2 2-4 7-8z" fill="#088648"/>
<path transform="translate(1294,587)" d="m0 0 1 4-16 3h-16l4-3 3-1 24-1z" fill="#B57F52"/>
<path transform="translate(1139,115)" d="m0 0 2 1-9 16-5 5 1-7 7-12z" fill="#018F4E"/>
<path transform="translate(63,802)" d="m0 0h18l-4 6-2 4-2-1 1-6-5-2-1 4-6-1-2-3z" fill="#7EBFE9"/>
<path transform="translate(433,764)" d="m0 0h1l-1 11-3 2-6-1v-3h2l2-6 5-1z" fill="#139BDE"/>
<path transform="translate(444,746)" d="m0 0h2v22l-4-1v-15z" fill="#A0CBF0"/>
<path transform="translate(1159,193)" d="m0 0 4 2v8l-1 6-4-2v-3h-2l1-9z" fill="#034189"/>
<path transform="translate(170,630)" d="m0 0 1 2h14l14 1v3l-29-1z" fill="#F9DDB1"/>
<path transform="translate(1329,122)" d="m0 0 17 5 3 3-2 1h-8v-3h-8l-2-3z" fill="#1C9C66"/>
<path transform="translate(1150,105)" d="m0 0h3l-3 9h-2l-2 5-5 1 2-6 5-7h2z" fill="#47AF74"/>
<path transform="translate(817,811)" d="m0 0 3 1-4 1 1 8 3 1v2l-6-1-6-3 2-5z" fill="#DBEBF4"/>
<path transform="translate(457,776)" d="m0 0 4 3h3v12l-1 2h-2l-3-8z" fill="#CFE3F4"/>
<path transform="translate(268,723)" d="m0 0 5 1 7 6 3 2h-9l-3-1v-2h-2v2l-5-1v-2l4 1z" fill="#0A9454"/>
<path transform="translate(1296,627)" d="m0 0 1 3-6 4-9 5-5 3h-5v-2l16-8z" fill="#B5784A"/>
<path transform="translate(547,878)" d="m0 0 5 2 4 3-5 1-28 2h-14v-1l40-3v-2h-2z" fill="#63B8EA"/>
<path transform="translate(1148,227)" d="m0 0h3l-2 4-10 4h-5v-4l7-2z" fill="#CCA374"/>
<path transform="translate(572,870)" d="m0 0h10l6 8-2 2-7-3-3-4-4-2z" fill="#F5DAAF"/>
<path transform="translate(571,823)" d="m0 0h19l2 1v2l-7 1h-8l-4-2h-5z" fill="#DDEDF9"/>
<path transform="translate(273,651)" d="m0 0 3 1v34h-1l-1-20-2-7v-7z" fill="#F0E6D7"/>
<path transform="translate(1115,208)" d="m0 0h1l1 31-2 3-1-11v-21z" fill="#026167"/>
<path transform="translate(1234,573)" d="m0 0 4 2 3 5 8 5-1 3-5-2-8-6z" fill="#B58256"/>
<path transform="translate(382,678)" d="m0 0 1 2h2l2 6v6l-4-2-4-6 1-5z" fill="#0E9457"/>
<path transform="translate(873,751)" d="m0 0h1v19l-2-1-3-7-2-3v-3h2v-2l4-1z" fill="#37A7E3"/>
<path transform="translate(1312,118)" d="m0 0 11 2 4 2-7 2-1 3h-3v-3l-5-2z" fill="#0C9457"/>
<path transform="translate(939,677)" d="m0 0 1 4-2 4-2 6-2 2h-3l2-9 2-3h2z" fill="#064990"/>
<path transform="translate(313,664)" d="m0 0 3 1 1 7h-8l2 4-6 1v-3h2l1-4z" fill="#C7B3A1"/>
<path transform="translate(1035,170)" d="m0 0h1v6l-11 2h-3l-1-3 5-1z" fill="#47AF7C"/>
<path transform="translate(359,705)" d="m0 0 3 3 2 6v5l-4-2-4-6v-3h2z" fill="#1563A6"/>
<path transform="translate(335,816)" d="m0 0 6 2 10 5 4 4h-3l-9-3v-2l-4-1-4-2z" fill="#DED0B8"/>
<path transform="translate(293,609)" d="m0 0 16 3v1h-7l3 5-1 3-8-8-3-2z" fill="#2AA570"/>
<path transform="translate(552,858)" d="m0 0 9 2 3 2h-2l1 4-5 1-9-1-2-2 10-1 2-1-7-3z" fill="#D4BA96"/>
<path transform="translate(128,846)" d="m0 0h12l1 2-5 5-5-4-3-1z" fill="#70BCEB"/>
<path transform="translate(1233,641)" d="m0 0 14 1v2h17v1h-24l-7-3z" fill="#B57547"/>
<path transform="translate(287,710)" d="m0 0h1l1 25-3 1v-11l-1-2v-8z" fill="#F0F0EB"/>
<path transform="translate(978,195)" d="m0 0 2 1-4 4-16 10-2-1 13-10z" fill="#31A871"/>
<path transform="translate(1135,13)" d="m0 0 3 1-5 8-2 6-2-4v-4zm-5 9m-4 1 2 1-4 3z" fill="#33A87C"/>
<path transform="translate(1213,165)" d="m0 0 5 1v2l3 1v2h2v2l-7-1-5-3z" fill="#91C091"/>
<path transform="translate(580,860)" d="m0 0 4 1-4 2-1 3h-10l-4-2v-2h7z" fill="#A9B5BD"/>
<path transform="translate(532,869)" d="m0 0 4 1 1 3-7 1-16 2 3-2 14-4z" fill="#70BCEB"/>
<path transform="translate(571,877)" d="m0 0 7 1 6 2-2 2h-12z" fill="#63B8EA"/>
<path transform="translate(633,780)" d="m0 0h10l9 3v1h-15l-6-2z" fill="#C19264"/>
<path transform="translate(353,691)" d="m0 0h5l1 1-1 7-5-2-3-4z" fill="#D5E7F7"/>
<path transform="translate(272,808)" d="m0 0 4 2 7 8 2 6-1 4-5-11-6-5z" fill="#D3A36C"/>
<path transform="translate(886,739)" d="m0 0 8 1 3 5v2l-5-1-3-3-4-2z" fill="#155FA2"/>
<path transform="translate(178,583)" d="m0 0 4 1-3 9-4 5 1-14z" fill="#B1A697"/>
<path transform="translate(184,784)" d="m0 0h7l-5 4-5 3-3-1 1-4z" fill="#B57141"/>
<path transform="translate(472,738)" d="m0 0h2l2 11h-2v2l-3-1v-10z" fill="#1367AB"/>
<path transform="translate(128,709)" d="m0 0 3 4-5 1-1 3-8 8h-2l2-4 7-7z" fill="#EFDBBB"/>
<path transform="translate(168,644)" d="m0 0 1 2h19l1 3h-11l-1-1h-9z" fill="#F2E5CD"/>
<path transform="translate(590,826)" d="m0 0 4 2 2 2-1 4-3 1-4-4z" fill="#D4D0BF"/>
<path transform="translate(1259,571)" d="m0 0 1 2h3l1-2v3l-12 2h-8l1-2z" fill="#B58256"/>
<path transform="translate(1269,568)" d="m0 0h10l-2 2-9 3-4-1-1-2zm-9 3h3v2h-3z" fill="#B57E52"/>
<path transform="translate(1143,259)" d="m0 0h5l-5 6-9 1h-9v-1l14-1v-3h4z" fill="#D6A771"/>
<path transform="translate(167,663)" d="m0 0h8l-3 2 1 3-5 2h-3l1-6z" fill="#EAEEED"/>
<path transform="translate(1129,107)" d="m0 0 3 2v2l2 1-4 4h-7v-2l4-2z" fill="#BBD5EA"/>
<path transform="translate(305,747)" d="m0 0 8 2v1l-8 1v8l-1 7-3-2 2-10z" fill="#2679B8"/>
<path transform="translate(957,680)" d="m0 0h3l-2 10-2 3-6-1 5-5z" fill="#84C4EB"/>
<path transform="translate(994,616)" d="m0 0 4 3v5l-5 3-2-5z" fill="#146DAE"/>
<path transform="translate(115,728)" d="m0 0 7 1-3 5h-6l-1 3 1-6z" fill="#EEF3F4"/>
<path transform="translate(974,698)" d="m0 0 6 1 1 2v6l-6-4z" fill="#D9E6F0"/>
<path transform="translate(1082,316)" d="m0 0h11l-5 6-6-3z" fill="#EBEDEA"/>
<path transform="translate(1282,139)" d="m0 0 6 4 1 3-3 3h-2l-3-9z" fill="#F3F3F0"/>
<path transform="translate(938,695)" d="m0 0 4 1h-2l3 5 1 1v8h-1l-1-7-4-1-1 2-2-2 2-2z" fill="#C1DCF1"/>
<path transform="translate(1227,681)" d="m0 0h12l6 1v1l-8 1h-10z" fill="#B57E51"/>
<path transform="translate(232,644)" d="m0 0h5l-1 5-4 3-3-2v-3z" fill="#CAA06E"/>
<path transform="translate(1249,678)" d="m0 0h6l-2 1v2l-2 1h-12l1-2z" fill="#B5784A"/>
<path transform="translate(1248,482)" d="m0 0 3 1 3-1v5l-5 5h-2z" fill="#CCA374"/>
<path transform="translate(486,801)" d="m0 0h2l4 5h-12l2-4z" fill="#C5E0F4"/>
<path transform="translate(1279,662)" d="m0 0 2 1-11 10-4 1 1-4 11-7z" fill="#B58155"/>
<path transform="translate(989,260)" d="m0 0 4 1-1 6-4 4-1-8z" fill="#018F4E"/>
<path transform="translate(1158,86)" d="m0 0m-2 1 2 1-16 16-2 1 2-4z" fill="#259E60"/>
<path transform="translate(1101,60)" d="m0 0 3 1v6l-5 10 1-8v-3l-1-2z" fill="#1A9D60"/>
<path transform="translate(1121,31)" d="m0 0 5 1-1 3-6 1v3h-2l1-7z" fill="#068747"/>
<path transform="translate(568,825)" d="m0 0 2 1-7 9-3-1 1-4h2v-2z" fill="#EDDCBE"/>
<path transform="translate(172,714)" d="m0 0h3l1 7-4 2-1-1v-7z" fill="#E5E9E6"/>
<path transform="translate(348,662)" d="m0 0 3 1v8l-2 2v-2h-2l-1-5z" fill="#47AF74"/>
<path transform="translate(1229,448)" d="m0 0 4 1 1 3-2 5-4-4z" fill="#CCA374"/>
<path transform="translate(289,835)" d="m0 0 4 1 2 1 1-2-1 5-10-1z" fill="#C6935F"/>
<path transform="translate(336,833)" d="m0 0 6 1 2 4-9-1-2-2z" fill="#E0A666"/>
<path transform="translate(552,859)" d="m0 0 7 2 1 2-3 1h-12v-1h7z" fill="#CD914F"/>
<path transform="translate(372,845)" d="m0 0 4 2 6 1 1 3-3 1-8-3z" fill="#B68F60"/>
<path transform="translate(197,700)" d="m0 0 4 1v8l-3 1v-7h-2z" fill="#CBE0F2"/>
<path transform="translate(589,858)" d="m0 0h5l-1 5-5 3-2-1 5-2-1-2-6-1v-1z" fill="#96C8EF"/>
<path transform="translate(927,748)" d="m0 0h1l1 7 2-2v9h-3l-1-5z" fill="#3CA9E3"/>
<path transform="translate(1122,95)" d="m0 0 5 1 1 3-9 1 1-4z" fill="#E9EAE6"/>
<path transform="translate(224,833)" d="m0 0h5l-2 4-6-1-7-1v-1z" fill="#9CCAF0"/>
<path transform="translate(857,752)" d="m0 0h3l1 2v9h2l1-4-1 10-3-4-1-12z" fill="#6CB3E2"/>
<path transform="translate(1e3 735)" d="m0 0 2 3 3 8-1 3-5-8v-5z" fill="#3386C2"/>
<path transform="translate(197,714)" d="m0 0h4v8l-4-1z" fill="#EAF2F7"/>
<path transform="translate(312,671)" d="m0 0 6 1-1 3-6 1-2-4z" fill="#146FB3"/>
<path transform="translate(325,664)" d="m0 0 3 1 3 4v2l-5 1-1-2z" fill="#0F5FA4"/>
<path transform="translate(284,642)" d="m0 0h3l1 7-1 5h-1l-2-6z" fill="#5EAEE1"/>
<path transform="translate(1175,215)" d="m0 0 8 1-1 5-7-2z" fill="#0C7B66"/>
<path transform="translate(1201,104)" d="m0 0h7l-1 4-3 1-5-2z" fill="#E0E9EF"/>
<path transform="translate(532,864)" d="m0 0 4 1-7 6-6 1 4-4z" fill="#F3E3C8"/>
<path transform="translate(530,862)" d="m0 0 10 1v1l-8 1-3 3h-2l1-4z" fill="#C7A57E"/>
<path transform="translate(433,797)" d="m0 0h8l-1 3-14-1v-1z" fill="#F4F7F8"/>
<path transform="translate(251,785)" d="m0 0h9l-3 3-4 1-6-1v-2z" fill="#CCA475"/>
<path transform="translate(966,405)" d="m0 0h1v14h-2l-1-13z" fill="#6FBBB4"/>
<path transform="translate(1120,61)" d="m0 0 5 5v2h-6l-1-3z" fill="#D9E5E9"/>
<path transform="translate(654,785)" d="m0 0h7v2l-7 1h-9v-1z" fill="#BB936F"/>
<path transform="translate(144,728)" d="m0 0 4 4v1h-17v-1l13-1z" fill="#AE9270"/>
<path transform="translate(877,726)" d="m0 0h3l-1 7h-5l2-6z" fill="#0A4C92"/>
<path transform="translate(1071,368)" d="m0 0 1 3 5 2 1 5-2-2-4-1-1-3z" fill="#2B986D"/>
<path transform="translate(901,271)" d="m0 0h2l-1 5-3 5-3 1 2-6z" fill="#128D52"/>
<path transform="translate(1263,404)" d="m0 0 3 1 1 9-4-4-1-4z" fill="#B67244"/>
<path transform="translate(1029,360)" d="m0 0h2l1 2 1 10-2 2-2-10z" fill="#2C9A6D"/>
<path transform="translate(929,272)" d="m0 0 2 4 3 4v4l-3-1-2-4z" fill="#0B8B4C"/>
<path transform="translate(1198,216)" d="m0 0h1l1 11 1 4-4-2-1-3z" fill="#41AD85"/>
<path transform="translate(999,185)" d="m0 0 3 1-8 4-3 2-4-2z" fill="#39AA7B"/>
<path transform="translate(1035,170)" d="m0 0h1v6h-6v-3z" fill="#EBEBE9"/>
<path transform="translate(577,873)" d="m0 0 5 2 6 3-2 2-7-3z" fill="#EFF4F6"/>
<path transform="translate(60,803)" d="m0 0h9l-1 4-6-1z" fill="#63B8EA"/>
<path transform="translate(363,696)" d="m0 0 1 3-2 4-3 1-2-4 2-3v3h2v-2h2z" fill="#2DA670"/>
<path transform="translate(373,673)" d="m0 0 2 1v2l2 1 1 4-6-2-1-5z" fill="#10925A"/>
<path transform="translate(171,614)" d="m0 0h1v9l-1 7-3-2 1-5z" fill="#BBA087"/>
<path transform="translate(1006,749)" d="m0 0" fill="#A5CDF1"/>
</svg>
